<svg xmlns="http://www.w3.org/2000/svg" width="549.326" height="372.56" viewBox="0 0 549.326 372.56">
  <g id="Personal_site-rafiki_1_" data-name="Personal site-rafiki (1)" transform="translate(0 -55)">
    <g id="freepik--background-complete--inject-63" transform="translate(0 55)">
      <rect id="Rectangle_221" data-name="Rectangle 221" width="549.326" height="0.25" transform="translate(0 327.4)" fill="#ebebeb"/>
      <rect id="Rectangle_222" data-name="Rectangle 222" width="33.12" height="0.25" transform="translate(466.106 343.49)" fill="#ebebeb"/>
      <rect id="Rectangle_223" data-name="Rectangle 223" width="8.69" height="0.25" transform="translate(354.911 346.21)" fill="#ebebeb"/>
      <rect id="Rectangle_224" data-name="Rectangle 224" width="19.19" height="0.25" transform="translate(437.276 334.21)" fill="#ebebeb"/>
      <rect id="Rectangle_225" data-name="Rectangle 225" width="43.19" height="0.25" transform="translate(52.46 335.89)" fill="#ebebeb"/>
      <rect id="Rectangle_226" data-name="Rectangle 226" width="6.33" height="0.25" transform="translate(115.007 335.89)" fill="#ebebeb"/>
      <rect id="Rectangle_227" data-name="Rectangle 227" width="93.68" height="0.25" transform="translate(147.43 340.11)" fill="#ebebeb"/>
      <path id="Path_495" data-name="Path 495" d="M237,380.259H43.91c-3.15-.006-5.7-2.945-5.7-6.567V61.51c.027-3.6,2.57-6.5,5.7-6.51H237c3.154,0,5.71,2.94,5.71,6.567V373.691C242.71,377.318,240.154,380.259,237,380.259ZM43.91,55.23c-3.012.006-5.45,2.816-5.45,6.28V373.691c0,3.464,2.438,6.273,5.45,6.28H237c3.013-.006,5.454-2.814,5.46-6.28V61.51c-.006-3.466-2.447-6.273-5.46-6.28Z" transform="translate(0 -55)" fill="#ebebeb"/>
      <path id="Path_496" data-name="Path 496" d="M453.31,380.259H260.21c-3.151-.006-5.7-2.943-5.71-6.567V61.51c.033-3.6,2.578-6.5,5.71-6.51h193.1c3.126.012,5.663,2.914,5.69,6.51V373.691C459,377.309,456.456,380.246,453.31,380.259ZM260.21,55.23c-3.013.006-5.454,2.814-5.46,6.28V373.691c.006,3.466,2.447,6.273,5.46,6.28h193.1c3.013-.006,5.454-2.814,5.46-6.28V61.51c-.006-3.466-2.447-6.273-5.46-6.28Z" transform="translate(49.326 -55)" fill="#ebebeb"/>
      <rect id="Rectangle_228" data-name="Rectangle 228" width="176.29" height="223.23" transform="translate(494.646 327.55) rotate(180)" fill="#f0f0f0"/>
      <rect id="Rectangle_229" data-name="Rectangle 229" width="163.83" height="47.74" transform="translate(488.416 160.19) rotate(180)" fill="#e0e0e0"/>
      <rect id="Rectangle_230" data-name="Rectangle 230" width="9.31" height="40.01" transform="translate(488.416 160.18) rotate(180)" fill="#ebebeb"/>
      <rect id="Rectangle_231" data-name="Rectangle 231" width="9.31" height="40.01" transform="translate(432.77 160.18) rotate(180)" fill="#ebebeb"/>
      <rect id="Rectangle_232" data-name="Rectangle 232" width="9.31" height="40.01" transform="matrix(-0.985, -0.17, 0.17, -0.985, 369.396, 160.17)" fill="#ebebeb"/>
      <rect id="Rectangle_233" data-name="Rectangle 233" width="9.31" height="34.74" transform="translate(476.886 160.19) rotate(180)" fill="#ebebeb"/>
      <rect id="Rectangle_234" data-name="Rectangle 234" width="9.31" height="34.74" transform="translate(446.064 160.19) rotate(180)" fill="#ebebeb"/>
      <rect id="Rectangle_235" data-name="Rectangle 235" width="9.31" height="34.74" transform="translate(386.647 160.19) rotate(180)" fill="#ebebeb"/>
      <rect id="Rectangle_236" data-name="Rectangle 236" width="9.31" height="34.74" transform="translate(411.371 160.177) rotate(-167.47)" fill="#ebebeb"/>
      <rect id="Rectangle_237" data-name="Rectangle 237" width="4.65" height="41.99" transform="translate(435.52 160.19) rotate(180)" fill="#ebebeb"/>
      <rect id="Rectangle_238" data-name="Rectangle 238" width="4.65" height="41.99" transform="translate(394.836 160.19) rotate(180)" fill="#ebebeb"/>
      <rect id="Rectangle_239" data-name="Rectangle 239" width="163.83" height="47.74" transform="translate(324.596 167.74)" fill="#e0e0e0"/>
      <rect id="Rectangle_240" data-name="Rectangle 240" width="9.31" height="40.01" transform="translate(302.941 175.47)" fill="#ebebeb"/>
      <rect id="Rectangle_241" data-name="Rectangle 241" width="9.31" height="40.01" transform="translate(352.465 175.47)" fill="#ebebeb"/>
      <rect id="Rectangle_242" data-name="Rectangle 242" width="9.31" height="40.01" transform="matrix(0.985, -0.17, 0.17, 0.985, 409.358, 176.038)" fill="#ebebeb"/>
      <rect id="Rectangle_243" data-name="Rectangle 243" width="9.31" height="34.74" transform="translate(315.63 180.74)" fill="#ebebeb"/>
      <rect id="Rectangle_244" data-name="Rectangle 244" width="9.31" height="34.74" transform="translate(339.171 180.74)" fill="#ebebeb"/>
      <rect id="Rectangle_245" data-name="Rectangle 245" width="9.31" height="34.74" transform="translate(398.588 180.74)" fill="#ebebeb"/>
      <rect id="Rectangle_246" data-name="Rectangle 246" width="9.31" height="34.74" transform="translate(366.677 181.553) rotate(-12.53)" fill="#ebebeb"/>
      <rect id="Rectangle_247" data-name="Rectangle 247" width="4.65" height="41.99" transform="translate(329.324 173.49)" fill="#ebebeb"/>
      <rect id="Rectangle_248" data-name="Rectangle 248" width="4.65" height="41.99" transform="translate(390.197 173.49)" fill="#ebebeb"/>
      <rect id="Rectangle_249" data-name="Rectangle 249" width="9.31" height="40.01" transform="translate(488.416 215.48) rotate(180)" fill="#ebebeb"/>
      <rect id="Rectangle_250" data-name="Rectangle 250" width="9.31" height="34.74" transform="translate(476.886 215.48) rotate(180)" fill="#ebebeb"/>
      <rect id="Rectangle_251" data-name="Rectangle 251" width="9.31" height="34.74" transform="translate(446.064 215.48) rotate(180)" fill="#ebebeb"/>
      <rect id="Rectangle_252" data-name="Rectangle 252" width="4.65" height="41.99" transform="translate(435.52 215.48) rotate(180)" fill="#ebebeb"/>
      <rect id="Rectangle_253" data-name="Rectangle 253" width="163.83" height="47.74" transform="translate(488.416 270.77) rotate(180)" fill="#e0e0e0"/>
      <rect id="Rectangle_254" data-name="Rectangle 254" width="9.31" height="40.01" transform="translate(378.811 270.77) rotate(180)" fill="#ebebeb"/>
      <rect id="Rectangle_255" data-name="Rectangle 255" width="9.31" height="40.01" transform="matrix(-0.985, -0.17, 0.17, -0.985, 315.373, 270.766)" fill="#ebebeb"/>
      <rect id="Rectangle_256" data-name="Rectangle 256" width="9.31" height="34.74" transform="translate(415.646 270.77) rotate(180)" fill="#ebebeb"/>
      <rect id="Rectangle_257" data-name="Rectangle 257" width="9.31" height="34.74" transform="translate(392.105 270.77) rotate(180)" fill="#ebebeb"/>
      <rect id="Rectangle_258" data-name="Rectangle 258" width="9.31" height="34.74" transform="translate(332.688 270.77) rotate(180)" fill="#ebebeb"/>
      <rect id="Rectangle_259" data-name="Rectangle 259" width="9.31" height="34.74" transform="translate(357.342 270.768) rotate(-167.47)" fill="#ebebeb"/>
      <rect id="Rectangle_260" data-name="Rectangle 260" width="4.65" height="41.99" transform="translate(401.796 270.77) rotate(180)" fill="#ebebeb"/>
      <rect id="Rectangle_261" data-name="Rectangle 261" width="4.65" height="41.99" transform="translate(340.934 270.77) rotate(180)" fill="#ebebeb"/>
      <rect id="Rectangle_262" data-name="Rectangle 262" width="9.31" height="40.01" transform="matrix(-0.985, -0.17, 0.17, -0.985, 433.36, 270.76)" fill="#ebebeb"/>
      <rect id="Rectangle_263" data-name="Rectangle 263" width="9.31" height="34.74" transform="translate(428.968 270.77) rotate(180)" fill="#ebebeb"/>
      <rect id="Rectangle_264" data-name="Rectangle 264" width="9.31" height="34.74" transform="translate(481.502 270.761) rotate(-167.47)" fill="#ebebeb"/>
      <rect id="Rectangle_265" data-name="Rectangle 265" width="4.65" height="41.99" transform="translate(439.116 270.77) rotate(180)" fill="#ebebeb"/>
      <path id="Path_497" data-name="Path 497" d="M418.26,159.31V156h-5.37a62.769,62.769,0,0,0,2-31.45s.08,13.73-5.23,13.83c-8.11.14-8.72-13.83-8.72-13.83s-2,20,5.32,31.45H400.7v3.31Z" transform="translate(20.903 -55)" fill="#e0e0e0"/>
      <circle id="Ellipse_23" data-name="Ellipse 23" cx="4.68" cy="4.68" r="4.68" transform="translate(422.701 74.03)" fill="#e0e0e0"/>
      <path id="Path_498" data-name="Path 498" d="M382.26,159.31v-1.93l-5.67-2.64,2.83-2.76-7.05-24.93v15.56s1,0,1,2.24-3.21,1.72-3.21-.13,1.05-2.11,1.05-2.11V126.39l-6.46,24.66,2.9,3.69-5.8,2.64v1.93Z" transform="translate(37.217 -55)" fill="#e0e0e0"/>
      <path id="Path_499" data-name="Path 499" d="M347.53,159.31v-1.53l-5.23-1.19V133.71l-4.48-6.26-3.82,4.9v10.5l-1.98-2.74-2.77-1.06-1.98,4.33,4.22,13.21-4.22,1.19v1.53Z" transform="translate(33.65 -55)" fill="#e0e0e0"/>
      <path id="Path_500" data-name="Path 500" d="M312.84,160.01l-6.41-32.56H286.8l4.65,18.46-6.88,13.4Z" transform="translate(29.756 -55)" fill="#e0e0e0"/>
      <rect id="Rectangle_266" data-name="Rectangle 266" width="130.44" height="6.7" transform="translate(53.31 64.558)" fill="#e0e0e0"/>
      <rect id="Rectangle_267" data-name="Rectangle 267" width="5.75" height="24.7" transform="translate(59.31 31.79)" fill="#ebebeb"/>
      <rect id="Rectangle_268" data-name="Rectangle 268" width="5.75" height="24.7" transform="translate(116.506 31.79)" fill="#ebebeb"/>
      <rect id="Rectangle_269" data-name="Rectangle 269" width="5.75" height="24.7" transform="matrix(0.985, -0.17, 0.17, 0.985, 130.674, 32.147)" fill="#ebebeb"/>
      <rect id="Rectangle_270" data-name="Rectangle 270" width="5.75" height="21.45" transform="translate(66.43 35.04)" fill="#ebebeb"/>
      <rect id="Rectangle_271" data-name="Rectangle 271" width="5.75" height="21.45" transform="translate(106.527 35.04)" fill="#ebebeb"/>
      <rect id="Rectangle_272" data-name="Rectangle 272" width="5.75" height="21.45" transform="translate(124.255 35.04)" fill="#ebebeb"/>
      <rect id="Rectangle_273" data-name="Rectangle 273" width="5.75" height="21.45" transform="translate(104.331 35.551) rotate(-12.53)" fill="#ebebeb"/>
      <rect id="Rectangle_274" data-name="Rectangle 274" width="2.87" height="25.93" transform="translate(74.27 30.56)" fill="#ebebeb"/>
      <rect id="Rectangle_275" data-name="Rectangle 275" width="2.87" height="25.93" transform="translate(119.211 30.56)" fill="#ebebeb"/>
      <rect id="Rectangle_276" data-name="Rectangle 276" width="28" height="19.33" transform="translate(158.198 36.94)" fill="#ebebeb"/>
      <rect id="Rectangle_277" data-name="Rectangle 277" width="130.44" height="6.7" transform="translate(183.74 113.23) rotate(180)" fill="#e0e0e0"/>
      <rect id="Rectangle_278" data-name="Rectangle 278" width="5.75" height="24.7" transform="translate(194.905 106.53) rotate(180)" fill="#ebebeb"/>
      <rect id="Rectangle_279" data-name="Rectangle 279" width="5.75" height="24.7" transform="translate(164.341 106.53) rotate(180)" fill="#ebebeb"/>
      <rect id="Rectangle_280" data-name="Rectangle 280" width="5.75" height="24.7" transform="matrix(-0.985, -0.17, 0.17, -0.985, 125.051, 106.519)" fill="#ebebeb"/>
      <rect id="Rectangle_281" data-name="Rectangle 281" width="5.75" height="21.45" transform="translate(187.074 106.52) rotate(180)" fill="#ebebeb"/>
      <rect id="Rectangle_282" data-name="Rectangle 282" width="5.75" height="21.45" transform="translate(172.557 106.52) rotate(180)" fill="#ebebeb"/>
      <rect id="Rectangle_283" data-name="Rectangle 283" width="5.75" height="21.45" transform="translate(135.889 106.52) rotate(180)" fill="#ebebeb"/>
      <rect id="Rectangle_284" data-name="Rectangle 284" width="5.75" height="21.45" transform="translate(150.925 106.52) rotate(-167.47)" fill="#ebebeb"/>
      <rect id="Rectangle_285" data-name="Rectangle 285" width="2.87" height="25.93" transform="translate(178.647 106.53) rotate(180)" fill="#ebebeb"/>
      <rect id="Rectangle_286" data-name="Rectangle 286" width="2.87" height="25.93" transform="translate(141.075 106.53) rotate(180)" fill="#ebebeb"/>
      <rect id="Rectangle_287" data-name="Rectangle 287" width="28" height="19.33" transform="translate(117.329 106.3) rotate(180)" fill="#ebebeb"/>
      <rect id="Rectangle_288" data-name="Rectangle 288" width="109.39" height="123.08" transform="translate(46.99 204.47)" fill="#e0e0e0"/>
      <rect id="Rectangle_289" data-name="Rectangle 289" width="98.53" height="19.82" transform="translate(52.42 209.37)" fill="#ebebeb"/>
      <rect id="Rectangle_290" data-name="Rectangle 290" width="98.53" height="19.82" transform="translate(52.42 234.34)" fill="#ebebeb"/>
      <rect id="Rectangle_291" data-name="Rectangle 291" width="98.53" height="59.1" transform="translate(52.42 259.31)" fill="#ebebeb"/>
      <path id="Path_501" data-name="Path 501" d="M106.27,267.76H97.1a6.9,6.9,0,0,1-5.94-3.39h21A6.9,6.9,0,0,1,106.27,267.76Z" transform="translate(9.387 -55)" fill="#e0e0e0"/>
      <path id="Path_502" data-name="Path 502" d="M106.27,292.7H97.1a6.9,6.9,0,0,1-5.94-3.39h21A6.9,6.9,0,0,1,106.27,292.7Z" transform="translate(9.387 -55)" fill="#e0e0e0"/>
      <path id="Path_503" data-name="Path 503" d="M106.27,317.73H97.1a6.89,6.89,0,0,1-5.94-3.4h21a6.89,6.89,0,0,1-5.89,3.4Z" transform="translate(9.387 -55)" fill="#e0e0e0"/>
    </g>
    <g id="freepik--Shadow--inject-63" transform="translate(56.11 404.92)">
      <ellipse id="freepik--path--inject-63" cx="218.553" cy="11.32" rx="218.553" ry="11.32" fill="#f5f5f5"/>
    </g>
    <g id="freepik--Plant--inject-63" transform="translate(98.322 333.97)">
      <path id="Path_504" data-name="Path 504" d="M107.85,342.4c-.21,1.47,3.77,2.44,7,3-.26,2.67-2,5.37-4.49,7.89-3.09-1.74-7.49-4-8.3-3.48s3.62,3.53,6.44,5.25a57.058,57.058,0,0,1-6.39,4.84c-1.38-1.29-3-2.43-4-1.81s-.73,2.63-.24,4.42c-3.36,1.95-5.87,3.14-5.87,3.14a67.5,67.5,0,0,1-2.24-9.53c.17-.33.34-.67.49-1,.54-1.25,0-1.78-.88-2a32.82,32.82,0,0,1-.05-6.86c3.79-.8,8.41-2.27,6.68-4.55-1-1.38-3-1.53-4.94-1.19a8.52,8.52,0,0,1,.94-1.27c6.92-7.62,11.74,0,11.74,0,4-3.35,9.66-2.45,10.88,2.79C112.42,341.45,108.11,340.59,107.85,342.4Z" transform="translate(-70.83 -333.97)" fill="#407bff"/>
      <path id="Path_505" data-name="Path 505" d="M107.85,342.4c-.21,1.47,3.77,2.44,7,3-.26,2.67-2,5.37-4.49,7.89-3.09-1.74-7.49-4-8.3-3.48s3.62,3.53,6.44,5.25a57.058,57.058,0,0,1-6.39,4.84c-1.38-1.29-3-2.43-4-1.81s-.73,2.63-.24,4.42c-3.36,1.95-5.87,3.14-5.87,3.14a67.5,67.5,0,0,1-2.24-9.53c.17-.33.34-.67.49-1,.54-1.25,0-1.78-.88-2a32.82,32.82,0,0,1-.05-6.86c3.79-.8,8.41-2.27,6.68-4.55-1-1.38-3-1.53-4.94-1.19a8.52,8.52,0,0,1,.94-1.27c6.92-7.62,11.74,0,11.74,0,4-3.35,9.66-2.45,10.88,2.79C112.42,341.45,108.11,340.59,107.85,342.4Z" transform="translate(-70.83 -333.97)" fill="#fff" opacity="0.3"/>
      <path id="Path_506" data-name="Path 506" d="M99.22,398.39l1-.08c0-.52-4.1-51.53,7.35-56.34a3.88,3.88,0,0,1,3.47.09c4.14,2.15,6.12,11.08,6.14,11.17l1-.21c-.09-.39-2.11-9.48-6.66-11.85a4.88,4.88,0,0,0-4.32-.12C95.07,346.14,99,396.26,99.22,398.39Z" transform="translate(-70.83 -333.97)" fill="#407bff"/>
      <path id="Path_507" data-name="Path 507" d="M97.78,397.28c.2-2.29,4.87-56.26-3.87-62-2.09-1.38-4-1.67-5.54-.87-4.13,2.09-4.68,10.91-4.7,11.29l1,.05c0-.08.53-8.62,4.15-10.45,1.24-.62,2.77-.35,4.55.81,8.24,5.41,3.46,60.52,3.41,61.08Z" transform="translate(-70.83 -333.97)" fill="#407bff"/>
      <path id="Path_508" data-name="Path 508" d="M96.46,401.65C96.53,399.89,98,358.58,90,355a5.55,5.55,0,0,0-4.73,0c-5.46,2.4-8.83,12.58-9,13l1,.31c0-.1,3.37-10.18,8.42-12.4a4.56,4.56,0,0,1,3.92,0c6.1,2.77,6.3,34,5.86,45.74Z" transform="translate(-70.83 -333.97)" fill="#407bff"/>
      <path id="Path_509" data-name="Path 509" d="M98.49,399.76l1-.12c-1.4-12.29-4.08-45.06.3-49a1.72,1.72,0,0,1,1.79-.55c2.93,1.13,4.72,11.78,5.16,15.8l1-.11c-.17-1.54-1.77-15.08-5.8-16.62a2.64,2.64,0,0,0-2.82.74C93.45,355,98.28,397.93,98.49,399.76Z" transform="translate(-70.83 -333.97)" fill="#407bff"/>
      <path id="Path_510" data-name="Path 510" d="M115.17,376.45H79.25l3,40.24h29.92Z" transform="translate(-70.83 -333.97)" fill="#263238"/>
      <path id="Path_511" data-name="Path 511" d="M104.26,376.45l-1,40.24H82.25l-3-40.24Z" transform="translate(-70.83 -333.97)" fill="#fff" opacity="0.2"/>
      <path id="Path_512" data-name="Path 512" d="M110.28,361.68c.38,1,3.17.21,5.36-.57.75,1.73.58,4-.07,6.4-2.5,0-6,.08-6.31.7s3.44.94,5.77,1a39.919,39.919,0,0,1-2.28,5.17c-1.3-.32-2.68-.46-3.07.25s.46,1.87,1.37,2.8c-1.4,2.36-2.54,4-2.54,4a48.119,48.119,0,0,1-4.65-5.11v-.81c-.09-.95-.6-1.1-1.21-.9a22.78,22.78,0,0,1-2.39-4.22c2.07-1.79,4.41-4.28,2.56-5.1-1.11-.49-2.34.07-3.45,1a5.81,5.81,0,0,1,.14-1.11c1.65-7.07,7.24-4,7.24-4,1.33-3.44,5.12-4.82,7.67-2C112.78,359.52,109.82,360.47,110.28,361.68Z" transform="translate(-70.83 -333.97)" fill="#407bff"/>
      <path id="Path_513" data-name="Path 513" d="M110.28,361.68c.38,1,3.17.21,5.36-.57.75,1.73.58,4-.07,6.4-2.5,0-6,.08-6.31.7s3.44.94,5.77,1a39.919,39.919,0,0,1-2.28,5.17c-1.3-.32-2.68-.46-3.07.25s.46,1.87,1.37,2.8c-1.4,2.36-2.54,4-2.54,4a48.119,48.119,0,0,1-4.65-5.11v-.81c-.09-.95-.6-1.1-1.21-.9a22.78,22.78,0,0,1-2.39-4.22c2.07-1.79,4.41-4.28,2.56-5.1-1.11-.49-2.34.07-3.45,1a5.81,5.81,0,0,1,.14-1.11c1.65-7.07,7.24-4,7.24-4,1.33-3.44,5.12-4.82,7.67-2C112.78,359.52,109.82,360.47,110.28,361.68Z" transform="translate(-70.83 -333.97)" fill="#fff" opacity="0.3"/>
      <path id="Path_514" data-name="Path 514" d="M83.61,366.46a13.49,13.49,0,0,1,3.28.69,7.361,7.361,0,0,0,.48-2.38c.23-7.25-5-4.19-7.7-6.32A5.93,5.93,0,0,0,75.09,357a12,12,0,0,1,.62,1.24,1.14,1.14,0,0,1-.88,1.55,3.22,3.22,0,0,1-2-.24,2.751,2.751,0,0,1-.53-.36,10,10,0,0,0-1,2.42,13.52,13.52,0,0,0-.47,3.1,10.366,10.366,0,0,1,1.21.34,1.13,1.13,0,0,1,.45,1.73,5.3,5.3,0,0,1-1.49,1,16.9,16.9,0,0,0,.91,3.39.8.8,0,0,1,.37.06c.12.06.52.12.78.19a2.321,2.321,0,0,1,.44.16,1.13,1.13,0,0,1,.25,1.93,6,6,0,0,1-.54.33,7.93,7.93,0,0,0,2.87,2.89,28.6,28.6,0,0,0,3-1.61c-.22-.29-.43-.58-.63-.88a1.67,1.67,0,0,1-.31-1.14,1.55,1.55,0,0,1,1.72-1.33,1.58,1.58,0,0,1,1,.59,10.077,10.077,0,0,0,.76,1,18.879,18.879,0,0,0,3.68-3.58h-.11a11.737,11.737,0,0,0-2-.34,1.54,1.54,0,1,1,.4-3.05Z" transform="translate(-70.83 -333.97)" fill="#407bff"/>
      <path id="Path_515" data-name="Path 515" d="M83.61,366.46a13.49,13.49,0,0,1,3.28.69,7.361,7.361,0,0,0,.48-2.38c.23-7.25-5-4.19-7.7-6.32A5.93,5.93,0,0,0,75.09,357a12,12,0,0,1,.62,1.24,1.14,1.14,0,0,1-.88,1.55,3.22,3.22,0,0,1-2-.24,2.751,2.751,0,0,1-.53-.36,10,10,0,0,0-1,2.42,13.52,13.52,0,0,0-.47,3.1,10.366,10.366,0,0,1,1.21.34,1.13,1.13,0,0,1,.45,1.73,5.3,5.3,0,0,1-1.49,1,16.9,16.9,0,0,0,.91,3.39.8.8,0,0,1,.37.06c.12.06.52.12.78.19a2.321,2.321,0,0,1,.44.16,1.13,1.13,0,0,1,.25,1.93,6,6,0,0,1-.54.33,7.93,7.93,0,0,0,2.87,2.89,28.6,28.6,0,0,0,3-1.61c-.22-.29-.43-.58-.63-.88a1.67,1.67,0,0,1-.31-1.14,1.55,1.55,0,0,1,1.72-1.33,1.58,1.58,0,0,1,1,.59,10.077,10.077,0,0,0,.76,1,18.879,18.879,0,0,0,3.68-3.58h-.11a11.737,11.737,0,0,0-2-.34,1.54,1.54,0,1,1,.4-3.05Z" transform="translate(-70.83 -333.97)" fill="#fff" opacity="0.5"/>
      <path id="Path_516" data-name="Path 516" d="M81.53,341.48a9,9,0,0,0-2-1.08,5.169,5.169,0,0,1,.79-1.46c3.06-3.91,4.45,0,6.82.06a4,4,0,0,1,3,1.25,6.736,6.736,0,0,0-.87.38.79.79,0,0,0-.22,1.2,2.29,2.29,0,0,0,1.18.77,3.13,3.13,0,0,0,.43,0,6.761,6.761,0,0,1-.54,1.71A10,10,0,0,1,89,346.18a7.911,7.911,0,0,0-.79-.35.76.76,0,0,0-1,.7,3.29,3.29,0,0,0,.32,1.21,11.751,11.751,0,0,1-2,1.39,1.638,1.638,0,0,0-.22-.14c-.16-.09-.33-.16-.49-.24l-.3-.11a.8.8,0,0,0-.74.17.76.76,0,0,0-.24.74,3.31,3.31,0,0,0,.14.41,5.5,5.5,0,0,1-2.78.26,20.826,20.826,0,0,1-.89-2.19c.24-.06.48-.11.71-.18a1.19,1.19,0,0,0,.67-.47,1.055,1.055,0,0,0-1.12-1.59c-.28.08-.57.14-.86.21a13.141,13.141,0,0,1-.37-3.5h.08a8.25,8.25,0,0,1,1.22.71,1.051,1.051,0,0,0,1.19-1.73Z" transform="translate(-70.83 -333.97)" fill="#407bff"/>
      <path id="Path_517" data-name="Path 517" d="M81.53,341.48a9,9,0,0,0-2-1.08,5.169,5.169,0,0,1,.79-1.46c3.06-3.91,4.45,0,6.82.06a4,4,0,0,1,3,1.25,6.736,6.736,0,0,0-.87.38.79.79,0,0,0-.22,1.2,2.29,2.29,0,0,0,1.18.77,3.13,3.13,0,0,0,.43,0,6.761,6.761,0,0,1-.54,1.71A10,10,0,0,1,89,346.18a7.911,7.911,0,0,0-.79-.35.76.76,0,0,0-1,.7,3.29,3.29,0,0,0,.32,1.21,11.751,11.751,0,0,1-2,1.39,1.638,1.638,0,0,0-.22-.14c-.16-.09-.33-.16-.49-.24l-.3-.11a.8.8,0,0,0-.74.17.76.76,0,0,0-.24.74,3.31,3.31,0,0,0,.14.41,5.5,5.5,0,0,1-2.78.26,20.826,20.826,0,0,1-.89-2.19c.24-.06.48-.11.71-.18a1.19,1.19,0,0,0,.67-.47,1.055,1.055,0,0,0-1.12-1.59c-.28.08-.57.14-.86.21a13.141,13.141,0,0,1-.37-3.5h.08a8.25,8.25,0,0,1,1.22.71,1.051,1.051,0,0,0,1.19-1.73Z" transform="translate(-70.83 -333.97)" fill="#fff" opacity="0.3"/>
      <path id="Path_518" data-name="Path 518" d="M110.8,348.73c.21,1.47-3.77,2.44-7,3,.26,2.67,2,5.36,4.49,7.88,3.09-1.74,7.49-4,8.3-3.47s-3.62,3.53-6.44,5.24a57.057,57.057,0,0,0,6.39,4.84c1.38-1.29,3-2.42,4-1.81s.73,2.64.24,4.42c3.36,2,5.87,3.15,5.87,3.15a67.5,67.5,0,0,0,2.24-9.53c-.17-.34-.34-.67-.49-1-.54-1.25,0-1.79.88-2a32.91,32.91,0,0,0,.05-6.87c-3.79-.79-8.41-2.27-6.68-4.55,1-1.37,3-1.53,4.94-1.18a8.612,8.612,0,0,0-.94-1.28c-6.92-7.62-11.74,0-11.74,0-4-3.35-9.66-2.44-10.88,2.79C106.23,347.77,110.54,346.91,110.8,348.73Z" transform="translate(-70.83 -333.97)" fill="#407bff"/>
      <path id="Path_519" data-name="Path 519" d="M110.8,348.73c.21,1.47-3.77,2.44-7,3,.26,2.67,2,5.36,4.49,7.88,3.09-1.74,7.49-4,8.3-3.47s-3.62,3.53-6.44,5.24a57.057,57.057,0,0,0,6.39,4.84c1.38-1.29,3-2.42,4-1.81s.73,2.64.24,4.42c3.36,2,5.87,3.15,5.87,3.15a67.5,67.5,0,0,0,2.24-9.53c-.17-.34-.34-.67-.49-1-.54-1.25,0-1.79.88-2a32.91,32.91,0,0,0,.05-6.87c-3.79-.79-8.41-2.27-6.68-4.55,1-1.37,3-1.53,4.94-1.18a8.612,8.612,0,0,0-.94-1.28c-6.92-7.62-11.74,0-11.74,0-4-3.35-9.66-2.44-10.88,2.79C106.23,347.77,110.54,346.91,110.8,348.73Z" transform="translate(-70.83 -333.97)" fill="#fff" opacity="0.5"/>
    </g>
    <g id="freepik--Device--inject-63" transform="translate(153.22 77.22)">
      <rect id="Rectangle_292" data-name="Rectangle 292" width="188.74" height="339.47" rx="10.4" fill="#263238"/>
      <path id="Path_520" data-name="Path 520" d="M314.69,88.59V404.71a4.62,4.62,0,0,1-4.69,4.62H142.88a4.14,4.14,0,0,1-4.19-4.24V88.21a3.73,3.73,0,0,1,3.59-3.88h41.78a2.94,2.94,0,0,1,2.69,1.88l1.73,4.26a2.94,2.94,0,0,0,2.69,1.86H262.3A2.91,2.91,0,0,0,265,90.5l1.73-4.28a3,3,0,0,1,2.69-1.89H310.6a4.22,4.22,0,0,1,4.09,4.26Z" transform="translate(-132.26 -77.22)" fill="#ffb547"/>
      <rect id="Rectangle_293" data-name="Rectangle 293" width="176" height="284.25" transform="translate(6.43 26.86)" fill="#fff" opacity="0.3"/>
      <circle id="Ellipse_24" data-name="Ellipse 24" cx="39.85" cy="39.85" r="39.85" transform="translate(16.74 54.677)" fill="#fff"/>
      <circle id="Ellipse_25" data-name="Ellipse 25" cx="2.42" cy="2.42" r="2.42" transform="translate(88.03 5.11)" fill="#fff" opacity="0.6"/>
      <path id="Path_521" data-name="Path 521" d="M230,84.75a1.54,1.54,0,1,1-.451-1.1,1.55,1.55,0,0,1,.451,1.1Z" transform="translate(-132.26 -77.22)" fill="#fff" opacity="0.6"/>
      <rect id="Rectangle_294" data-name="Rectangle 294" width="2.17" height="2.9" transform="translate(28.46 19.85) rotate(180)" fill="#fff" opacity="0.6"/>
      <rect id="Rectangle_295" data-name="Rectangle 295" width="2.17" height="3.86" transform="translate(24.91 19.85) rotate(180)" fill="#fff" opacity="0.6"/>
      <rect id="Rectangle_296" data-name="Rectangle 296" width="2.17" height="4.83" transform="translate(21.37 19.85) rotate(180)" fill="#fff" opacity="0.6"/>
      <rect id="Rectangle_297" data-name="Rectangle 297" width="2.17" height="5.8" transform="translate(17.83 19.85) rotate(180)" fill="#fff" opacity="0.6"/>
      <rect id="Rectangle_298" data-name="Rectangle 298" width="1.29" height="2.9" transform="translate(161.68 15.89)" fill="#fff" opacity="0.6"/>
      <rect id="Rectangle_299" data-name="Rectangle 299" width="10.27" height="5.01" transform="translate(174.12 19.85) rotate(180)" fill="#fff" opacity="0.6"/>
      <g id="freepik--group--inject-63" transform="translate(16.74 38.01)">
        <path id="Path_522" data-name="Path 522" d="M194,156c-8.26.1-20.63.75-30.91,3.34,0,0,1.51,7.58,3.15,17.89.61,3.84,1.24,8,1.82,12.39.08.65.17,1.3.25,2l.12,1c.16,1.31.32,2.63.47,3.94a8.583,8.583,0,0,0,.1.87,39.87,39.87,0,0,0,38.21.79c-.08-13.32-.9-30.23-4.05-42A73.884,73.884,0,0,0,194,156Z" transform="translate(-149 -115.23)" fill="#407bff"/>
        <path id="Path_523" data-name="Path 523" d="M194,156c-8.26.1-20.63.75-30.91,3.34,0,0,1.51,7.58,3.15,17.89.61,3.84,1.24,8,1.82,12.39.08.65.17,1.3.25,2l.12,1c.16,1.31.32,2.63.47,3.94a8.583,8.583,0,0,0,.1.87,39.87,39.87,0,0,0,38.21.79c-.08-13.32-.9-30.23-4.05-42A73.884,73.884,0,0,0,194,156Z" transform="translate(-149 -115.23)" fill="#fff" opacity="0.6"/>
        <path id="Path_524" data-name="Path 524" d="M176.53,157.63c3.3,3,11.37,1.89,11.37,1.89s5-1.38,4-3c-3-.49-4.41-1.88-5-3.65a8.8,8.8,0,0,1-.3-3.39,11.244,11.244,0,0,1,.25-1.9l-10-7.39C178.16,145.11,179.76,154.09,176.53,157.63Z" transform="translate(-149 -115.23)" fill="#ebb376"/>
        <path id="Path_525" data-name="Path 525" d="M179.15,144.93c.4,6,5.32,7.64,7.73,8a8.8,8.8,0,0,1-.3-3.39Z" transform="translate(-149 -115.23)" opacity="0.2"/>
        <path id="Path_526" data-name="Path 526" d="M191.56,124.84s3.42,8.79-.63,13.37-7.84-12.36-7.84-12.36Z" transform="translate(-149 -115.23)" fill="#263238"/>
        <path id="Path_527" data-name="Path 527" d="M178.52,148.58a8.49,8.49,0,0,0,10.21,1.08,9.45,9.45,0,0,0,4.29-5.45,9.162,9.162,0,0,0,.24-1c1.13-6.1-.29-16-7-18.33a9.18,9.18,0,0,0-12.17,9.81C174.84,141.38,175,145.34,178.52,148.58Z" transform="translate(-149 -115.23)" fill="#ebb376"/>
        <path id="Path_528" data-name="Path 528" d="M184.37,136.07c0,.55.33,1,.69,1s.62-.47.6-1-.34-1-.7-.95S184.34,135.52,184.37,136.07Z" transform="translate(-149 -115.23)" fill="#263238"/>
        <path id="Path_529" data-name="Path 529" d="M190.53,135.76c0,.54.34,1,.7,1s.62-.48.59-1-.34-1-.7-.95S190.5,135.24,190.53,135.76Z" transform="translate(-149 -115.23)" fill="#263238"/>
        <path id="Path_530" data-name="Path 530" d="M188.58,136.13a19.42,19.42,0,0,0,2.85,4.53,3.15,3.15,0,0,1-2.6.62Z" transform="translate(-149 -115.23)" fill="#d58745"/>
        <path id="Path_531" data-name="Path 531" d="M182.35,134.18a.35.35,0,0,0,.31-.15,2.57,2.57,0,0,1,2-1.17.32.32,0,0,0,0-.64h0a3.2,3.2,0,0,0-2.53,1.45.33.33,0,0,0,.07.45h0A.59.59,0,0,0,182.35,134.18Z" transform="translate(-149 -115.23)" fill="#263238"/>
        <path id="Path_532" data-name="Path 532" d="M193.07,133.5a.31.31,0,0,0,.19,0,.32.32,0,0,0,.13-.43h0a3.17,3.17,0,0,0-2.4-1.68.3.3,0,0,0-.34.29h0a.33.33,0,0,0,.29.34h0a2.58,2.58,0,0,1,1.88,1.36A.3.3,0,0,0,193.07,133.5Z" transform="translate(-149 -115.23)" fill="#263238"/>
        <path id="Path_533" data-name="Path 533" d="M178.6,126.12l.65,2.9a2.2,2.2,0,0,0-.83,2.87c1.19,2.38.17,6.36-1.58,8.07,0,0-.16-1.06-1-.72s-.08,5.9,1.95,8.39a19.6,19.6,0,0,1-5.49-8.35c-1.93-5.28-2-9.28-1.15-11.49Z" transform="translate(-149 -115.23)" fill="#263238"/>
        <path id="Path_534" data-name="Path 534" d="M171.47,140.36a6.37,6.37,0,0,0,3.81,3c2.15.6,3.23-1.32,2.64-3.36-.54-1.8-2.31-4.35-4.48-4a2.85,2.85,0,0,0-1.97,4.36Z" transform="translate(-149 -115.23)" fill="#ebb376"/>
        <path id="Path_535" data-name="Path 535" d="M179.25,129s7.24,2.57,11.36-1.25-.64-9-.64-9a6,6,0,0,1-3.76,1.8c-2.31.16-7.64-1.23-11.93,1s-5.9,8.37-2,11.17Z" transform="translate(-149 -115.23)" fill="#263238"/>
        <path id="Path_536" data-name="Path 536" d="M185,142.22a3.14,3.14,0,0,0,3.57,1.28" transform="translate(-149 -115.23)" fill="none" stroke="#263238" stroke-linecap="round" stroke-linejoin="round" stroke-width="0.5"/>
        <path id="Path_537" data-name="Path 537" d="M191.19,159l-1,4.75s5.53,23.07,6.72,35l-2,2-3.17-2s-.28-24.37-3.08-34.61l-5-4.11,4-1.27Z" transform="translate(-149 -115.23)" fill="#ffb547"/>
        <path id="Path_538" data-name="Path 538" d="M177.66,153.11l9.59,4.32.56-3.46,3.53,1.24a2.9,2.9,0,0,1,1.92,3l-.4,3.81L188,159.38l-2.43,3.43-11.52-5.55Z" transform="translate(-149 -115.23)" fill="#407bff"/>
        <path id="Path_539" data-name="Path 539" d="M177.66,153.11l9.59,4.32.56-3.46,3.53,1.24a2.9,2.9,0,0,1,1.92,3l-.4,3.81L188,159.38l-2.43,3.43-11.52-5.55Z" transform="translate(-149 -115.23)" fill="#fff" opacity="0.7"/>
        <path id="Path_540" data-name="Path 540" d="M187,115.23c-22,0-38,25.58-38,47.58a39.834,39.834,0,0,0,18.768,33.815c-1.748-12.785-4.168-31.115-4.648-37.275l11.19-2.68s9.05,7.36,19.28,30.83c0,0,.37-22.93-1.56-31.93l11.16.54s6,13.25,5.11,41.48a39.82,39.82,0,0,0,20.4-34.78C228.7,140.81,209,115.23,187,115.23Z" transform="translate(-149 -115.23)" fill="none"/>
        <path id="Path_541" data-name="Path 541" d="M203.19,156.11,192,155.57c1.93,9,1.56,31.93,1.56,31.93-10.23-23.47-19.28-30.83-19.28-30.83l-11.19,2.68c.48,6.16,2.9,24.49,4.64,37.27a39.84,39.84,0,0,0,40.54,1C209.15,169.36,203.19,156.11,203.19,156.11Z" transform="translate(-149 -115.23)" fill="#263238"/>
        <path id="Path_542" data-name="Path 542" d="M208.36,188c-.54-21.65-5.17-31.86-5.17-31.86L192,155.57c1.65,7.72,1.61,25.72,1.57,30.66v1.26l-.58-1.33c-10-22.41-18.69-29.5-18.69-29.5l-.77.19-10.41,2.5c.27,3.49,1.16,10.88,2.19,19,.34,2.57.68,5.2,1,7.8s.66,4.89,1,7.2c.15,1.14.3,2.24.45,3.31a39.85,39.85,0,0,0,40.56,1,13.289,13.289,0,0,1,.05-1.43Q208.45,191.82,208.36,188Z" transform="translate(-149 -115.23)" fill="#fff" opacity="0.1"/>
        <path id="Path_543" data-name="Path 543" d="M197.7,166.06l2.59,4.56s-2.69,17.56-7,23.67v-3.63l-16.74-19.3,3-4.64L172,168.2s-.7-7,1.54-11.35l.77-.18s9.05,7.37,19.27,30.83c0,0,.38-22.94-1.55-31.93,0,0,5.33,2.89,9.13,10.49Z" transform="translate(-149 -115.23)" fill="#fff" opacity="0.2"/>
        <path id="Path_544" data-name="Path 544" d="M187,115.23c-22,0-38,25.58-38,47.58a39.81,39.81,0,0,0,18.76,33.81c-.15-1.07-.3-2.17-.45-3.31-.31-2.31-.63-4.74-1-7.2l4.95-16.1,12.37,15.05,9.34,1.1.6.07L208.36,188q.09,3.84,0,8.18c-2.83-.43-6.65-1.14-11.42-2.33a141.22,141.22,0,0,1-14.76,8.28,39.85,39.85,0,0,0,46.51-39.29C228.7,140.81,209,115.23,187,115.23Z" transform="translate(-149 -115.23)" fill="none"/>
        <path id="Path_545" data-name="Path 545" d="M208.37,196.15q.07-4.34,0-8.18l-14.76-1.74-.6-.07-9.34-1.1L171.29,170l-4.95,16.1c.34,2.46.66,4.89,1,7.2.15,1.14.3,2.24.45,3.31a39.56,39.56,0,0,0,14.43,5.48A141.219,141.219,0,0,0,197,193.82C201.72,195,205.54,195.72,208.37,196.15Z" transform="translate(-149 -115.23)" opacity="0.2"/>
        <path id="Path_546" data-name="Path 546" d="M184.28,191.81l1-4.31,22.66-7.6a105.785,105.785,0,0,0-1.56-11.23,111.2,111.2,0,0,0-3.19-12.55c4.37,1,16.84,18.12,19.26,28.11a39.65,39.65,0,0,0,6.25-21.42c0-22-19.67-47.58-41.68-47.58s-38,25.58-38,47.58a39.85,39.85,0,0,0,66.8,29.36C204.67,194.28,184.28,191.81,184.28,191.81Z" transform="translate(-149 -115.23)" fill="none"/>
        <path id="Path_547" data-name="Path 547" d="M203.19,156.12a111.2,111.2,0,0,1,3.19,12.55,105.786,105.786,0,0,1,1.56,11.23l-22.66,7.6-1,4.31s20.39,2.47,31.52.36a40.231,40.231,0,0,0,6.65-7.94C220,174.24,207.56,157.14,203.19,156.12Z" transform="translate(-149 -115.23)" fill="#263238"/>
        <path id="Path_548" data-name="Path 548" d="M201.12,193c-3.32-.08-6.53-.26-9.25-.47-4.47-.33-7.59-.72-7.59-.72l1-4.31,7.9-2.64,14.77-4.95a109,109,0,0,0-1.56-11.23c-.07-.36-.14-.71-.22-1.07a108.688,108.688,0,0,0-3-11.49c4.37,1,16.84,18.13,19.26,28.13a39.71,39.71,0,0,0,6.25-21.43c0-22-19.67-47.58-41.68-47.58s-38,25.58-38,47.58a39.85,39.85,0,0,0,66.79,29.37,75.349,75.349,0,0,1-14.67.81Z" transform="translate(-149 -115.23)" fill="none"/>
        <path id="Path_549" data-name="Path 549" d="M203.19,156.11a108.7,108.7,0,0,1,3,11.49c.08.36.15.71.22,1.07a109,109,0,0,1,1.56,11.23l-14.77,4.95-7.9,2.64-1,4.31s3.12.39,7.59.72c2.72.21,5.93.39,9.25.47a75.349,75.349,0,0,0,14.67-.81,40.281,40.281,0,0,0,6.66-7.94C220,174.24,207.56,157.14,203.19,156.11Z" transform="translate(-149 -115.23)" fill="#fff" opacity="0.1"/>
        <path id="Path_550" data-name="Path 550" d="M214.49,179.83A70.151,70.151,0,0,1,201.12,193c-3.32-.08-6.53-.26-9.25-.47a16,16,0,0,1-.7-5l2-2.64,14.77-4.95a109,109,0,0,0-1.56-11.23c-.07-.36-.14-.71-.22-1.07l.08-.09S212.84,172.56,214.49,179.83Z" transform="translate(-149 -115.23)" opacity="0.2"/>
        <path id="Path_551" data-name="Path 551" d="M187.53,185.11s-4.51-3.63-6.27-4.18-5.18,2.09-5.18,2.09l4.4,6.28Z" transform="translate(-149 -115.23)" fill="#ebb376"/>
        <path id="Path_552" data-name="Path 552" d="M207.78,184.34l6.71-4.51s-5.06-3.63-5.72-3.74-4,3.74-4,3.74Z" transform="translate(-149 -115.23)" fill="#ebb376"/>
        <path id="Path_553" data-name="Path 553" d="M163.13,159.35c-6.53,3.2,2.81,34.19,10.91,40.49s35.58-15.55,35.58-15.55l-4.15-5.82S184,186,181.18,185.26s-10.4-16.81-12.87-20.53a21.4,21.4,0,0,0-6.12-5.9" transform="translate(-149 -115.23)" fill="#263238"/>
        <path id="Path_554" data-name="Path 554" d="M163.13,159.35c-6.53,3.2,2.81,34.19,10.91,40.49s35.58-15.55,35.58-15.55l-4.15-5.82S184,186,181.18,185.26s-10.4-16.81-12.87-20.53a21.4,21.4,0,0,0-6.12-5.9" transform="translate(-149 -115.23)" fill="#fff" opacity="0.1"/>
      </g>
      <path id="Path_555" data-name="Path 555" d="M282.93,144.3H245.82a4.8,4.8,0,0,1-4.79-4.79h0a4.79,4.79,0,0,1,4.79-4.78h37.11a4.78,4.78,0,0,1,4.78,4.78h0a4.79,4.79,0,0,1-4.78,4.79Z" transform="translate(-132.26 -68.725)" fill="#848484"/>
      <path id="Path_556" data-name="Path 556" d="M299.84,155.62h-57a1.84,1.84,0,0,1-1.84-1.84h0a1.83,1.83,0,0,1,1.84-1.83h57a1.83,1.83,0,0,1,1.84,1.83h0a1.84,1.84,0,0,1-1.84,1.84Z" transform="translate(-132.26 -77.22)" fill="#848484"/>
      <path id="Path_557" data-name="Path 557" d="M275.67,164.16h-32.8a1.83,1.83,0,0,1-1.84-1.83h0a1.84,1.84,0,0,1,1.84-1.84h32.8a1.83,1.83,0,0,1,1.83,1.84h0a1.83,1.83,0,0,1-1.83,1.83Z" transform="translate(-132.26 -77.22)" fill="#848484"/>
      <path id="Path_558" data-name="Path 558" d="M259.91,186.66H245.49A4.46,4.46,0,0,1,241,182.2h0a4.46,4.46,0,0,1,4.46-4.46h14.42a4.45,4.45,0,0,1,4.46,4.46h0a4.46,4.46,0,0,1-4.43,4.46Z" transform="translate(-132.26 -77.22)" opacity="0.2"/>
      <rect id="Rectangle_300" data-name="Rectangle 300" width="65.14" height="163.23" transform="translate(11.06 137.49)" fill="#407bff"/>
      <g id="Group_23" data-name="Group 23" transform="translate(20.25 176.94)" opacity="0.3">
        <path id="Path_559" data-name="Path 559" d="M191.35,257.83h-37a1.84,1.84,0,0,1-1.84-1.84h0a1.83,1.83,0,0,1,1.84-1.83h37a1.83,1.83,0,0,1,1.84,1.83h0A1.84,1.84,0,0,1,191.35,257.83Z" transform="translate(-152.51 -254.16)" fill="#fff"/>
        <path id="Path_560" data-name="Path 560" d="M177.18,266.37h-22.8a1.84,1.84,0,0,1-1.84-1.84h0a1.83,1.83,0,0,1,1.84-1.83h22.8a1.84,1.84,0,0,1,1.84,1.83h0A1.84,1.84,0,0,1,177.18,266.37Z" transform="translate(-152.51 -254.16)" fill="#fff"/>
      </g>
      <g id="Group_24" data-name="Group 24" transform="translate(20.25 202.49)" opacity="0.3">
        <path id="Path_561" data-name="Path 561" d="M181.35,283.38h-27a1.84,1.84,0,0,1-1.84-1.84h0a1.83,1.83,0,0,1,1.84-1.83h27a1.83,1.83,0,0,1,1.84,1.83h0A1.84,1.84,0,0,1,181.35,283.38Z" transform="translate(-152.51 -279.71)" fill="#fff"/>
        <path id="Path_562" data-name="Path 562" d="M187.18,291.92h-32.8a1.83,1.83,0,0,1-1.84-1.83h0a1.84,1.84,0,0,1,1.84-1.84h32.8a1.84,1.84,0,0,1,1.84,1.84h0A1.84,1.84,0,0,1,187.18,291.92Z" transform="translate(-152.51 -279.71)" fill="#fff"/>
      </g>
      <g id="Group_25" data-name="Group 25" transform="translate(20.25 228.04)" opacity="0.3">
        <path id="Path_563" data-name="Path 563" d="M191.35,308.93h-37a1.83,1.83,0,0,1-1.84-1.83h0a1.84,1.84,0,0,1,1.84-1.84h37a1.84,1.84,0,0,1,1.84,1.84h0a1.83,1.83,0,0,1-1.84,1.83Z" transform="translate(-152.51 -305.26)" fill="#fff"/>
        <path id="Path_564" data-name="Path 564" d="M167.18,317.48h-12.8a1.84,1.84,0,0,1-1.84-1.84h0a1.83,1.83,0,0,1,1.84-1.83h12.8a1.84,1.84,0,0,1,1.84,1.83h0A1.85,1.85,0,0,1,167.18,317.48Z" transform="translate(-152.51 -305.26)" fill="#fff"/>
      </g>
      <g id="Group_26" data-name="Group 26" transform="translate(20.25 253.6)" opacity="0.3">
        <path id="Path_565" data-name="Path 565" d="M171.35,334.49h-17a1.84,1.84,0,0,1-1.84-1.84h0a1.83,1.83,0,0,1,1.84-1.83h17a1.83,1.83,0,0,1,1.84,1.83h0A1.84,1.84,0,0,1,171.35,334.49Z" transform="translate(-152.51 -330.82)" fill="#fff"/>
        <path id="Path_566" data-name="Path 566" d="M187.18,343h-32.8a1.84,1.84,0,0,1-1.84-1.84h0a1.83,1.83,0,0,1,1.84-1.83h32.8a1.84,1.84,0,0,1,1.84,1.83h0A1.84,1.84,0,0,1,187.18,343Z" transform="translate(-152.51 -330.82)" fill="#fff"/>
      </g>
      <rect id="Rectangle_301" data-name="Rectangle 301" width="97.58" height="163.23" transform="translate(177.48 300.73) rotate(180)" fill="#fff" opacity="0.3"/>
      <g id="Group_27" data-name="Group 27" transform="translate(93.284 162.426)" opacity="0.2">
        <path id="Path_567" data-name="Path 567" d="M227.55,232.27h27a1.84,1.84,0,1,0,0-3.67h-27a1.84,1.84,0,1,0,0,3.67Z" transform="translate(-225.544 -228.595)"/>
        <path id="Path_568" data-name="Path 568" d="M290.52,247.34h-51a1.84,1.84,0,1,0,0,3.67h51a1.84,1.84,0,1,0,0-3.67Z" transform="translate(-225.544 -228.595)"/>
        <path id="Path_569" data-name="Path 569" d="M227.55,259.55h62.8a1.84,1.84,0,0,0,0-3.67h-62.8a1.84,1.84,0,1,0,0,3.67Z" transform="translate(-225.544 -228.595)"/>
        <path id="Path_570" data-name="Path 570" d="M290.52,266.07h-63a1.84,1.84,0,1,0,0,3.67h63a1.84,1.84,0,1,0,0-3.67Z" transform="translate(-225.544 -228.595)"/>
        <path id="Path_571" data-name="Path 571" d="M227.55,278.29h62.8a1.84,1.84,0,0,0,0-3.67h-62.8a1.84,1.84,0,1,0,0,3.67Z" transform="translate(-225.544 -228.595)"/>
        <path id="Path_572" data-name="Path 572" d="M290.52,284.81h-63a1.84,1.84,0,1,0,0,3.67h63a1.84,1.84,0,1,0,0-3.67Z" transform="translate(-225.544 -228.595)"/>
        <path id="Path_573" data-name="Path 573" d="M227.55,297h48.8a1.84,1.84,0,0,0,0-3.67h-48.8a1.84,1.84,0,1,0,0,3.67Z" transform="translate(-225.544 -228.595)"/>
        <path id="Path_574" data-name="Path 574" d="M239.55,315.75h50.8a1.84,1.84,0,0,0,0-3.67h-50.8a1.84,1.84,0,1,0,0,3.67Z" transform="translate(-225.544 -228.595)"/>
        <path id="Path_575" data-name="Path 575" d="M290.52,322.28h-63a1.84,1.84,0,1,0,0,3.67h63a1.84,1.84,0,1,0,0-3.67Z" transform="translate(-225.544 -228.595)"/>
        <path id="Path_576" data-name="Path 576" d="M227.55,334.49h62.8a1.84,1.84,0,0,0,0-3.67h-62.8a1.84,1.84,0,1,0,0,3.67Z" transform="translate(-225.544 -228.595)"/>
        <path id="Path_577" data-name="Path 577" d="M277.52,341h-50a1.84,1.84,0,1,0,0,3.67h50a1.84,1.84,0,1,0,0-3.67Z" transform="translate(-225.544 -228.595)"/>
        <path id="Path_578" data-name="Path 578" d="M290.52,359.75h-63a1.84,1.84,0,1,0,0,3.67h63a1.84,1.84,0,1,0,0-3.67Z" transform="translate(-225.544 -228.595)"/>
      </g>
      <g id="Group_28" data-name="Group 28" transform="translate(20.25 151.38)" opacity="0.3">
        <path id="Path_579" data-name="Path 579" d="M181.35,232.27h-27a1.83,1.83,0,0,1-1.84-1.83h0a1.84,1.84,0,0,1,1.84-1.84h27a1.84,1.84,0,0,1,1.84,1.84h0a1.83,1.83,0,0,1-1.84,1.83Z" transform="translate(-152.51 -228.6)" fill="#fff"/>
        <path id="Path_580" data-name="Path 580" d="M167.18,240.82h-12.8a1.84,1.84,0,0,1-1.84-1.84h0a1.83,1.83,0,0,1,1.84-1.83h12.8A1.84,1.84,0,0,1,169,239h0a1.85,1.85,0,0,1-1.82,1.82Z" transform="translate(-152.51 -228.6)" fill="#fff"/>
      </g>
    </g>
    <g id="freepik--Character--inject-63" transform="translate(340.068 104.08)">
      <g id="freepik--group--inject-63-2" data-name="freepik--group--inject-63">
        <path id="Path_581" data-name="Path 581" d="M396.9,180.86l2.44-4.43,6.28-9.13,1.18-7.56s5.5,2,6.4,3.63.48,9.7,0,10.69-6.15,4.88-6.15,4.88l-3,5.8Z" transform="translate(-301.673 -104.08)" fill="#ebb376"/>
        <path id="Path_582" data-name="Path 582" d="M369.06,149.09s20.32,31.91,22.7,34.77,5-7.43,5-7.43l10.28,4.48s-2.9,19.51-10.81,20.3-24.79-20-24.79-20Z" transform="translate(-301.673 -95.313)" fill="#263238"/>
        <path id="Path_583" data-name="Path 583" d="M407.05,180.91s-2.9,19.51-10.81,20.31c-3.95.39-10.15-4.61-15.35-9.72s-9.44-10.32-9.44-10.32l-.82-11-1.57-21.14s20.32,31.91,22.7,34.77,5-7.43,5-7.43Z" transform="translate(-301.673 -95.32)" fill="#fff" opacity="0.1"/>
        <path id="Path_584" data-name="Path 584" d="M380.89,191.5c-5.21-5.11-9.44-10.32-9.44-10.32l-.82-11A32.73,32.73,0,0,1,380.89,191.5Z" transform="translate(-301.673 -104.08)" opacity="0.2"/>
        <path id="Path_585" data-name="Path 585" d="M329.73,320.23v-9.9a.72.72,0,0,0-.56-.7L322,308a1.2,1.2,0,0,0-1.43.92,1.236,1.236,0,0,0,0,.27c0,3.2.22,5.53.2,9.55,0,2.48-.31,9.95-.32,13.37s3.36,3.89,3.67,2.49c1.4-6.28,3.32-11,5.14-13a2,2,0,0,0,.47-1.37Z" transform="translate(-301.673 -104.08)" fill="#263238"/>
        <path id="Path_586" data-name="Path 586" d="M373.92,229.08l3.2,16.77s25.27,40.9,25.26,64.51c0,28.21-73.6,11.94-73.6,11.94v-13s44,3.78,48-.63c4.81-5.36-24.85-46.8-24.85-46.8Z" transform="translate(-301.673 -104.08)" fill="#263238"/>
        <path id="Path_587" data-name="Path 587" d="M402.38,310.37c0,15.55-22.38,17.58-42.45,16.27a235.421,235.421,0,0,1-29.77-4.05l-1.38-.29v-13l1.62.13c5,.4,20.57,1.53,32.35,1.36,7-.1,12.67-.67,14-2.12,2.36-2.63-3.6-14-10.27-24.84h0c-6.91-11.23-14.58-21.95-14.58-21.95l9.66-14.38,12.38-18.42,3.2,16.77S402.39,286.75,402.38,310.37Z" transform="translate(-301.673 -104.08)" fill="#fff" opacity="0.2"/>
        <path id="Path_588" data-name="Path 588" d="M362.75,310.8l-2.82,15.84a235.421,235.421,0,0,1-29.77-4.05l.24-13.15C335.4,309.84,351,311,362.75,310.8Z" transform="translate(-301.673 -104.08)" opacity="0.2"/>
        <path id="Path_589" data-name="Path 589" d="M361.58,265.44s4.11,9.67,4.88,18.39c-6.91-11.23-14.58-21.95-14.58-21.95l9.66-14.38,5.09-1.65S367.76,252.45,361.58,265.44Z" transform="translate(-301.673 -104.08)" opacity="0.2"/>
        <path id="Path_590" data-name="Path 590" d="M355,407.41h-9.9a.74.74,0,0,0-.7.56l-1.6,7.26a1.19,1.19,0,0,0,.92,1.42,1.238,1.238,0,0,0,.27,0c3.2-.05,5.53-.25,9.56-.25,2.47,0,9.95.26,13.37.26s3.86-3.38,2.46-3.69c-6.28-1.37-11-3.26-13-5.07A2,2,0,0,0,355,407.41Z" transform="translate(-301.673 -104.08)" fill="#263238"/>
        <path id="Path_591" data-name="Path 591" d="M329.83,229.62s-2.19,8.21,0,45.85c3.38,57.79,14.09,134.72,14.09,134.72l12.45-2.26s-1.59-115.08.09-146.84c0,0,17.6-15.79,17.46-32S329.83,229.62,329.83,229.62Z" transform="translate(-301.673 -104.08)" fill="#263238"/>
        <path id="Path_592" data-name="Path 592" d="M329.83,229.62s-2.19,8.21,0,45.85c3.38,57.79,14.09,134.72,14.09,134.72l12.45-2.26s-1.59-115.08.09-146.84c0,0,17.6-15.79,17.46-32S329.83,229.62,329.83,229.62Z" transform="translate(-301.673 -104.08)" fill="#fff" stroke="#0a0a0a" stroke-width="1" opacity="0.2"/>
        <path id="Path_593" data-name="Path 593" d="M373.37,224.43H329.83v5.19l44.1-.54Z" transform="translate(-301.673 -104.08)" fill="#263238"/>
        <rect id="Rectangle_302" data-name="Rectangle 302" width="1.55" height="9.2" transform="translate(43.707 127.22) rotate(180)" fill="#263238"/>
        <rect id="Rectangle_303" data-name="Rectangle 303" width="1.55" height="9.2" transform="translate(65.737 127.22) rotate(180)" fill="#263238"/>
        <rect id="Rectangle_304" data-name="Rectangle 304" width="8.05" height="5.8" transform="translate(59.907 125.24) rotate(180)" fill="#fff"/>
        <rect id="Rectangle_305" data-name="Rectangle 305" width="1.55" height="9.2" transform="translate(43.707 127.22) rotate(180)" fill="#fff" opacity="0.2"/>
        <rect id="Rectangle_306" data-name="Rectangle 306" width="1.55" height="9.2" transform="translate(65.737 127.22) rotate(180)" fill="#fff" opacity="0.2"/>
        <path id="Path_594" data-name="Path 594" d="M369.06,149.09s-27.51-1.3-48,3.87c0,0,9.05,45.56,8.71,71.47h43.61S376.2,175.83,369.06,149.09Z" transform="translate(-301.673 -94.293)" fill="#407bff"/>
        <path id="Path_595" data-name="Path 595" d="M373.37,224.43h-43.6c0-2.82,0-5.86-.2-9.06-.38-7.48-1.23-15.77-2.26-23.79l-.3-2.34c-.7-5.21-1.45-10.25-2.18-14.85-2-12.35-3.77-21.43-3.77-21.43,20.49-5.17,48-3.88,48-3.88C376.2,175.83,373.37,224.43,373.37,224.43Z" transform="translate(-301.673 -94.294)" fill="#fff" opacity="0.6"/>
        <path id="Path_596" data-name="Path 596" d="M337.12,150.9c3.95,3.59,13.62,2.26,13.62,2.26s6-1.65,4.78-3.54c-3.56-.59-5.28-2.25-6-4.38a10.43,10.43,0,0,1-.36-4.06,22,22,0,0,1,.3-2.27l-12-8.86C339.07,135.9,341,146.66,337.12,150.9Z" transform="translate(-301.673 -104.08)" fill="#ebb376"/>
        <path id="Path_597" data-name="Path 597" d="M340.26,135.68c.48,7.18,6.38,9.16,9.26,9.56a10.43,10.43,0,0,1-.36-4.06Z" transform="translate(-301.673 -104.08)" opacity="0.2"/>
        <path id="Path_598" data-name="Path 598" d="M333.51,111.45s-3.34,10.8,1.89,15.93,8.31-15.44,8.31-15.44Z" transform="translate(-301.673 -104.08)" fill="#263238"/>
        <path id="Path_599" data-name="Path 599" d="M351.11,138.71a10.13,10.13,0,0,1-12.1,2.16,11.27,11.27,0,0,1-5.6-6.15c-.14-.36-.26-.75-.37-1.14-1.87-7.18-1-19.13,6.79-22.49a11,11,0,0,1,14.46,5.66,10.811,10.811,0,0,1,.91,5C354.9,129.8,355.09,134.53,351.11,138.71Z" transform="translate(-301.673 -104.08)" fill="#ebb376"/>
        <path id="Path_600" data-name="Path 600" d="M343.06,124.27c.06.64-.32,1.18-.75,1.19s-.78-.52-.8-1.17.33-1.19.75-1.19S343,123.6,343.06,124.27Z" transform="translate(-301.673 -104.08)" fill="#263238"/>
        <path id="Path_601" data-name="Path 601" d="M335.67,124.41c.06.65-.33,1.19-.75,1.2s-.78-.52-.8-1.17.33-1.19.75-1.2S335.66,123.79,335.67,124.41Z" transform="translate(-301.673 -104.08)" fill="#263238"/>
        <path id="Path_602" data-name="Path 602" d="M338,124.69a23.151,23.151,0,0,1-3,5.66,3.81,3.81,0,0,0,3.16.52Z" transform="translate(-301.673 -104.08)" fill="#d58745"/>
        <path id="Path_603" data-name="Path 603" d="M345.31,121.83a.42.42,0,0,1-.38-.15,3.08,3.08,0,0,0-2.48-1.23.39.39,0,0,1-.42-.35.38.38,0,0,1,.35-.41h0a3.79,3.79,0,0,1,3.15,1.52.38.38,0,0,1,0,.53h0a.8.8,0,0,1-.22.09Z" transform="translate(-301.673 -104.08)" fill="#263238"/>
        <path id="Path_604" data-name="Path 604" d="M332.44,121.93a.34.34,0,0,1-.22,0,.38.38,0,0,1-.2-.5h0a3.77,3.77,0,0,1,2.72-2.21.38.38,0,0,1,.43.32h0a.39.39,0,0,1-.32.43h0a3.08,3.08,0,0,0-2.13,1.79A.41.41,0,0,1,332.44,121.93Z" transform="translate(-301.673 -104.08)" fill="#263238"/>
        <path id="Path_605" data-name="Path 605" d="M349.11,111.88l-.53,3.52a2.64,2.64,0,0,1,1.23,3.36c-1.22,2.95.34,7.61,2.58,9.51,0,0,.1-1.28,1.18-1s.6,7-1.61,10.19a23.48,23.48,0,0,0,5.84-10.44c1.86-6.48,1.66-11.27.39-13.83Z" transform="translate(-301.673 -104.08)" fill="#263238"/>
        <path id="Path_606" data-name="Path 606" d="M358.84,128.29a7.66,7.66,0,0,1-4.3,4c-2.52.9-4-1.31-3.44-3.79.5-2.21,2.39-5.4,5-5.21S359.86,126,358.84,128.29Z" transform="translate(-301.673 -104.08)" fill="#ebb376"/>
        <path id="Path_607" data-name="Path 607" d="M337.57,132.83a19.638,19.638,0,0,1,.79,2.85,4.519,4.519,0,0,0,.52,0c2.36-.11,3.42-.94,3.88-1.82a3.09,3.09,0,0,0,.31-1.41,2.93,2.93,0,0,0-.11-.82,11,11,0,0,1-4.58,1.17C337.88,132.83,337.57,132.83,337.57,132.83Z" transform="translate(-301.673 -104.08)" fill="#263238"/>
        <path id="Path_608" data-name="Path 608" d="M338.38,132.78l.25.84c2.22-.11,3.77-.48,4.44-1.19a2.93,2.93,0,0,0-.11-.82,11,11,0,0,1-4.58,1.17Z" transform="translate(-301.673 -104.08)" fill="#fff"/>
        <path id="Path_609" data-name="Path 609" d="M338.88,135.66c2.36-.11,3.42-.94,3.88-1.82a7.62,7.62,0,0,0-2.6.64,2.8,2.8,0,0,0-1.28,1.18Z" transform="translate(-301.673 -104.08)" fill="#de5753"/>
        <path id="Path_610" data-name="Path 610" d="M348.58,115.4s-8.43,3.69-13.68-.53,0-10.79,0-10.79a7.21,7.21,0,0,0,4.64,1.82c2.77,0,9-2.11,14.34.13s7.76,9.5,3.3,13.19Z" transform="translate(-301.673 -104.08)" fill="#263238"/>
        <path id="Path_611" data-name="Path 611" d="M354.68,152.57l-1.15,5.7s6.62,27.64,8.05,42l-2.42,2.41-3.8-2.41s-.34-29.2-3.69-41.47l-6-4.92,4.73-1.53Z" transform="translate(-301.673 -111.895)" fill="#ffb547"/>
        <path id="Path_612" data-name="Path 612" d="M338.47,145.48,350,150.66l.68-4.15L354.9,148a3.45,3.45,0,0,1,2.3,3.63l-.47,4.56L350.85,153l-2.9,4.11-13.81-6.65Z" transform="translate(-301.673 -104.08)" fill="#407bff"/>
        <path id="Path_613" data-name="Path 613" d="M338.47,145.48,350,150.66l.68-4.15L354.9,148a3.45,3.45,0,0,1,2.3,3.63l-.47,4.56L350.85,153l-2.9,4.11-13.81-6.65Z" transform="translate(-301.673 -104.08)" fill="#fff" opacity="0.7"/>
        <path id="Path_614" data-name="Path 614" d="M334.46,149.75s10.84,8.82,23.09,36.94c0,0,.45-27.48-1.86-38.26l13.37.65s9.78,21.61,4.87,68.29l3.39,23.34-14.74,6.17L359.18,236l-3.49,10.67-28.42-3.8,1.51-29.47S322,164.71,321.06,153Z" transform="translate(-301.673 -93.111)" fill="#263238"/>
        <path id="Path_615" data-name="Path 615" d="M377.32,240.72l-14.74,6.16L359.18,236l-3.49,10.66-11-1.47-17.44-2.33.75-14.64.76-14.83s-1.22-8.77-2.71-19.76c-.77-5.7-1.6-12-2.38-18-1.24-9.68-2.31-18.54-2.63-22.72l12.47-3,.93-.22s10.84,8.83,23.09,36.94c0,0,.45-27.48-1.86-38.25l13.37.65s9.78,21.6,4.87,68.29Z" transform="translate(-301.673 -93.12)" fill="#fff" opacity="0.1"/>
        <path id="Path_616" data-name="Path 616" d="M362.48,161l3.1,5.47s-3.22,21-8.4,28.36v-4.35l-20.06-23.13,3.6-5.56-9,1.78s-.84-8.45,1.84-13.6l.93-.22s10.84,8.83,23.09,36.94c0,0,.45-27.48-1.86-38.25,0,0,6.39,3.46,10.94,12.56Z" transform="translate(-301.673 -95.662)" fill="#fff" opacity="0.2"/>
        <path id="Path_617" data-name="Path 617" d="M326.07,193.66c-.77-5.7-1.6-12-2.38-18l3.19-1.63S329.74,185,326.07,193.66Z" transform="translate(-301.673 -104.08)" opacity="0.2"/>
        <path id="Path_618" data-name="Path 618" d="M344.71,245.22l-17.44-2.33.75-14.64C333.35,230.84,342,236.28,344.71,245.22Z" transform="translate(-301.673 -104.08)" opacity="0.2"/>
        <path id="Path_619" data-name="Path 619" d="M321.06,153s-21.35,31.89-19.24,49.69,28,46.8,28,46.8l8.25-5.13s-20.7-31.77-22.54-41.67c-1-5.32,11.34-28.61,11.34-28.61S326.05,158,321.06,153Z" transform="translate(-301.673 -113.692)" fill="#263238"/>
        <path id="Path_620" data-name="Path 620" d="M321.06,153s-21.35,31.89-19.24,49.69,28,46.8,28,46.8l8.25-5.13s-20.7-31.77-22.54-41.67c-1-5.32,11.34-28.61,11.34-28.61S326.05,158,321.06,153Z" transform="translate(-301.673 -113.692)" fill="#fff" opacity="0.1"/>
        <path id="Path_621" data-name="Path 621" d="M388.06,175.16l1.92-26.22,17.07,1.18,2.02-8.4,4.13,1.73-8.64,30.61Z" transform="translate(-301.673 -104.08)" fill="#407bff"/>
        <path id="Path_622" data-name="Path 622" d="M388.06,175.16l1.92-26.22,17.07,1.18,2.02-8.4,4.13,1.73-8.64,30.61Z" transform="translate(-301.673 -104.08)" fill="#fff" opacity="0.7"/>
        <path id="Path_623" data-name="Path 623" d="M384.57,178.94l6.33-27.16h17.14l6.07-9.8-5.01,29.06-6.07,6.36Z" transform="translate(-301.673 -104.08)" fill="#ffb547"/>
        <path id="Path_624" data-name="Path 624" d="M408.04,151.78l-5.01,25.62,6.07-6.36,5.01-29.06Z" transform="translate(-301.673 -104.08)" opacity="0.2"/>
        <path id="Path_625" data-name="Path 625" d="M410.74,161.51s-2.89,1-3.29,2.68-1.05,12.26-1.05,12.26,4.48-1,5.14-3.43S410.74,161.51,410.74,161.51Z" transform="translate(-301.673 -104.08)" fill="#ebb376"/>
      </g>
    </g>
  </g>
</svg>
