<svg xmlns="http://www.w3.org/2000/svg" xmlns:xlink="http://www.w3.org/1999/xlink" width="500" height="374.56" viewBox="0 0 500 374.56">
  <defs>
    <clipPath id="clip-path">
      <ellipse id="Ellipse_13" data-name="Ellipse 13" cx="30.39" cy="28.38" rx="30.39" ry="28.38" transform="translate(0 42.237) rotate(-44.02)" fill="#fff"/>
    </clipPath>
    <clipPath id="clip-path-4">
      <circle id="Ellipse_22" data-name="Ellipse 22" cx="50.36" cy="50.36" r="50.36" fill="#fff"/>
    </clipPath>
  </defs>
  <g id="People_search-rafiki" data-name="People search-rafiki" transform="translate(0 -55)">
    <g id="freepik--background-complete--inject-2" transform="translate(0 55)">
      <rect id="Rectangle_179" data-name="Rectangle 179" width="500" height="0.25" transform="translate(0 329.4)" fill="#ebebeb"/>
      <rect id="Rectangle_180" data-name="Rectangle 180" width="18.89" height="0.25" transform="translate(416.78 345.49)" fill="#ebebeb"/>
      <rect id="Rectangle_181" data-name="Rectangle 181" width="29.47" height="0.25" transform="translate(293.05 343.75)" fill="#ebebeb"/>
      <rect id="Rectangle_182" data-name="Rectangle 182" width="47.11" height="0.25" transform="translate(368.67 336.21)" fill="#ebebeb"/>
      <rect id="Rectangle_183" data-name="Rectangle 183" width="10.97" height="0.25" transform="translate(52.46 337.89)" fill="#ebebeb"/>
      <rect id="Rectangle_184" data-name="Rectangle 184" width="38.56" height="0.25" transform="translate(72.33 337.89)" fill="#ebebeb"/>
      <rect id="Rectangle_185" data-name="Rectangle 185" width="54.15" height="0.25" transform="translate(171 342.11)" fill="#ebebeb"/>
      <path id="Path_301" data-name="Path 301" d="M237,337.8H43.92a5.71,5.71,0,0,1-5.71-5.71V60.66A5.71,5.71,0,0,1,43.92,55H237a5.71,5.71,0,0,1,5.71,5.71V332.09A5.71,5.71,0,0,1,237,337.8ZM43.92,55.2a5.47,5.47,0,0,0-5.46,5.46V332.09a5.47,5.47,0,0,0,5.46,5.46H237a5.47,5.47,0,0,0,5.46-5.46V60.66A5.47,5.47,0,0,0,237,55.2Z" transform="translate(0 -55)" fill="#ebebeb"/>
      <path id="Path_302" data-name="Path 302" d="M453.31,337.8H260.21a5.72,5.72,0,0,1-5.71-5.71V60.66A5.72,5.72,0,0,1,260.21,55h193.1A5.71,5.71,0,0,1,459,60.66V332.09A5.71,5.71,0,0,1,453.31,337.8ZM260.21,55.2a5.47,5.47,0,0,0-5.46,5.46V332.09a5.47,5.47,0,0,0,5.46,5.46h193.1a5.47,5.47,0,0,0,5.46-5.46V60.66a5.47,5.47,0,0,0-5.46-5.46Z" transform="translate(0 -55)" fill="#ebebeb"/>
      <rect id="Rectangle_186" data-name="Rectangle 186" width="18.89" height="0.25" transform="translate(416.78 345.49)" fill="#ebebeb"/>
      <rect id="Rectangle_187" data-name="Rectangle 187" width="29.47" height="0.25" transform="translate(293.05 343.75)" fill="#ebebeb"/>
      <rect id="Rectangle_188" data-name="Rectangle 188" width="47.11" height="0.25" transform="translate(368.67 336.21)" fill="#ebebeb"/>
      <rect id="Rectangle_189" data-name="Rectangle 189" width="10.97" height="0.25" transform="translate(52.46 337.89)" fill="#ebebeb"/>
      <rect id="Rectangle_190" data-name="Rectangle 190" width="38.56" height="0.25" transform="translate(72.33 337.89)" fill="#ebebeb"/>
      <rect id="Rectangle_191" data-name="Rectangle 191" width="54.15" height="0.25" transform="translate(171 342.11)" fill="#ebebeb"/>
      <rect id="Rectangle_192" data-name="Rectangle 192" width="59.38" height="135.04" transform="translate(137.56 30.62)" fill="#e6e6e6"/>
      <rect id="Rectangle_193" data-name="Rectangle 193" width="59.38" height="135.04" transform="translate(141.19 30.62)" fill="#f5f5f5"/>
      <rect id="Rectangle_194" data-name="Rectangle 194" width="122.88" height="46.36" transform="translate(194.06 36.7) rotate(90)" fill="#fff"/>
      <rect id="Rectangle_195" data-name="Rectangle 195" width="122.88" height="2.74" transform="translate(194.05 36.7) rotate(90)" fill="#e6e6e6"/>
      <rect id="Rectangle_196" data-name="Rectangle 196" width="53.99" height="8.16" transform="translate(143.88 123.824)" fill="#f5f5f5"/>
      <rect id="Rectangle_197" data-name="Rectangle 197" width="53.99" height="8.16" transform="translate(143.88 47.42)" fill="#f5f5f5"/>
      <rect id="Rectangle_198" data-name="Rectangle 198" width="59.38" height="135.04" transform="translate(217.62 30.62)" fill="#e6e6e6"/>
      <rect id="Rectangle_199" data-name="Rectangle 199" width="59.38" height="135.04" transform="translate(221.24 30.62)" fill="#f5f5f5"/>
      <rect id="Rectangle_200" data-name="Rectangle 200" width="122.88" height="46.36" transform="translate(274.11 36.7) rotate(90)" fill="#fff"/>
      <rect id="Rectangle_201" data-name="Rectangle 201" width="122.88" height="2.74" transform="translate(274.11 36.7) rotate(90)" fill="#e6e6e6"/>
      <rect id="Rectangle_202" data-name="Rectangle 202" width="53.99" height="8.16" transform="translate(223.94 123.824)" fill="#f5f5f5"/>
      <rect id="Rectangle_203" data-name="Rectangle 203" width="53.99" height="8.16" transform="translate(223.94 47.42)" fill="#f5f5f5"/>
      <rect id="Rectangle_204" data-name="Rectangle 204" width="59.38" height="135.04" transform="translate(57.5 30.62)" fill="#e6e6e6"/>
      <rect id="Rectangle_205" data-name="Rectangle 205" width="59.38" height="135.04" transform="translate(61.13 30.62)" fill="#f5f5f5"/>
      <rect id="Rectangle_206" data-name="Rectangle 206" width="122.88" height="46.36" transform="translate(114 36.7) rotate(90)" fill="#fff"/>
      <rect id="Rectangle_207" data-name="Rectangle 207" width="122.88" height="2.74" transform="translate(113.99 36.69) rotate(90)" fill="#e6e6e6"/>
      <rect id="Rectangle_208" data-name="Rectangle 208" width="53.99" height="8.16" transform="translate(63.82 123.824)" fill="#f5f5f5"/>
      <rect id="Rectangle_209" data-name="Rectangle 209" width="53.99" height="8.16" transform="translate(63.82 47.42)" fill="#f5f5f5"/>
      <rect id="Rectangle_210" data-name="Rectangle 210" width="9.71" height="134.89" transform="translate(319.51 194.51)" fill="#e6e6e6"/>
      <rect id="Rectangle_211" data-name="Rectangle 211" width="5.72" height="134.89" transform="translate(326.1 194.51)" fill="#f0f0f0"/>
      <rect id="Rectangle_212" data-name="Rectangle 212" width="137.88" height="10.12" transform="translate(333.59 203.774) rotate(180)" fill="#f0f0f0"/>
      <rect id="Rectangle_213" data-name="Rectangle 213" width="9.71" height="134.89" transform="translate(55.4 194.51)" fill="#e6e6e6"/>
      <rect id="Rectangle_214" data-name="Rectangle 214" width="5.72" height="134.89" transform="translate(61.21 194.51)" fill="#f0f0f0"/>
      <rect id="Rectangle_215" data-name="Rectangle 215" width="137.88" height="10.12" transform="translate(191.55 203.774) rotate(180)" fill="#e6e6e6"/>
      <rect id="Rectangle_216" data-name="Rectangle 216" width="9.71" height="134.89" transform="translate(185.17 194.51)" fill="#e6e6e6"/>
      <rect id="Rectangle_217" data-name="Rectangle 217" width="5.72" height="134.89" transform="translate(191.76 194.51)" fill="#f0f0f0"/>
      <path id="Path_303" data-name="Path 303" d="M170.17,202.64h72l5.65,42.51H175.83Z" transform="translate(0 -54.02)" fill="#e6e6e6"/>
      <path id="Path_304" data-name="Path 304" d="M175.83,245.15l.29,2.35h72l-.29-2.35Z" transform="translate(0 -53.886)" fill="#e6e6e6"/>
      <path id="Path_305" data-name="Path 305" d="M172.39,202.64h71.99l5.66,42.51h-72Z" transform="translate(0 -54.02)" fill="#f0f0f0"/>
      <path id="Path_306" data-name="Path 306" d="M179.78,243.21l-5.13-38.63h67.99l5.14,38.63Z" transform="translate(0 -54.02)" fill="#fff"/>
      <path id="Path_307" data-name="Path 307" d="M196.8,245.15l.29,2.35h79.29l-.3-2.35Z" transform="translate(0 -53.886)" fill="#f0f0f0"/>
      <path id="Path_308" data-name="Path 308" d="M326.9,211H291.26a24.8,24.8,0,0,0-24.82,21.63L261.23,272l-19.36-.07h-.06A16.86,16.86,0,0,0,224.6,287.5L223.46,301a8.65,8.65,0,0,0-7.37,7.47H311.7a24.78,24.78,0,0,0,24.8-21.61l7.5-56.5A17.33,17.33,0,0,0,326.9,211Zm-84,89.86H228.6l1.08-12.42a12.44,12.44,0,0,1,12.7-11.52h.05l18.16.06-1.27,9.57a16.41,16.41,0,0,1-16.45,14.31Z" transform="translate(0 -53.733)" fill="#e0e0e0"/>
      <path id="Path_309" data-name="Path 309" d="M238.17,308.43h-4.96L221.59,382.4h4.96Z" transform="translate(0 -53)" fill="#f0f0f0"/>
      <path id="Path_310" data-name="Path 310" d="M256.79,308.43h-4.96L240.2,382.4h4.96Z" transform="translate(0 -53)" fill="#f0f0f0"/>
      <path id="Path_311" data-name="Path 311" d="M300.47,308.43h4.96l11.63,73.97H312.1Z" transform="translate(0 -53)" fill="#f0f0f0"/>
      <path id="Path_312" data-name="Path 312" d="M281.86,308.43h4.96l11.62,73.97h-4.96Z" transform="translate(0 -53)" fill="#f0f0f0"/>
      <rect id="Rectangle_218" data-name="Rectangle 218" width="96.69" height="202.01" transform="translate(342.92 32.99)" fill="#e6e6e6"/>
      <rect id="Rectangle_219" data-name="Rectangle 219" width="101.62" height="202.01" transform="translate(344.71 32.99)" fill="#f0f0f0"/>
      <rect id="Rectangle_220" data-name="Rectangle 220" width="184.98" height="84.6" transform="translate(437.81 41.51) rotate(90)" fill="#fafafa"/>
      <path id="Path_313" data-name="Path 313" d="M383.21,281.49,393.69,96.5h14.14L397.35,281.49Z" transform="translate(0 -55)" fill="#fff"/>
      <path id="Path_314" data-name="Path 314" d="M400.02,281.49,410.5,96.5h14.14L414.16,281.49Z" transform="translate(0 -55)" fill="#fff"/>
    </g>
    <g id="freepik--Shadow--inject-2" transform="translate(56.11 406.92)">
      <ellipse id="freepik--path--inject-2" cx="193.89" cy="11.32" rx="193.89" ry="11.32" fill="#f5f5f5"/>
    </g>
    <g id="freepik--People--inject-2" transform="translate(225.3 97.87)">
      <path id="Path_315" data-name="Path 315" d="M240.81,121.6,225.3,348.09H414.42L431.55,97.87H266.17Z" transform="translate(-225.3 -97.87)" fill="#407bff"/>
      <path id="Path_316" data-name="Path 316" d="M240.81,121.6,225.3,348.09H414.42L431.55,97.87H266.17Z" transform="translate(-225.3 -97.87)" fill="#fff" opacity="0.8"/>
      <ellipse id="Ellipse_11" data-name="Ellipse 11" cx="32.08" cy="29.96" rx="32.08" ry="29.96" transform="translate(108.937 55.671) rotate(-44.02)" fill="#407bff"/>
      <ellipse id="Ellipse_12" data-name="Ellipse 12" cx="30.39" cy="28.38" rx="30.39" ry="28.38" transform="translate(111.251 55.632) rotate(-44.02)" fill="#fff"/>
      <g id="Group_18" data-name="Group 18" transform="translate(111.251 13.396)" clip-path="url(#clip-path)">
        <path id="Path_317" data-name="Path 317" d="M370.41,163l-5.78-.38s-2.69,13.84-4.41,15c-2.35,1.63-7,5.57-10.09,7a5.61,5.61,0,0,0-.19,2.91c4.8,0,13.68-4.78,15.21-6.86C368.66,176,370.41,163,370.41,163Z" transform="translate(-336.551 -111.266)" fill="#ffc3bd"/>
        <path id="Path_318" data-name="Path 318" d="M373.17,154.32c1.75,3.26-3.7,15-3.7,15L362.05,167a31.37,31.37,0,0,1,2.47-10.48C366.36,152.69,371.25,150.74,373.17,154.32Z" transform="translate(-336.551 -111.266)" fill="#263238"/>
        <path id="Path_319" data-name="Path 319" d="M367.5,160.32c1,2.36-.31,8.06-1.34,11.67C363.65,167.69,363.3,163.69,367.5,160.32Z" transform="translate(-336.551 -111.266)" opacity="0.2"/>
        <path id="Path_320" data-name="Path 320" d="M367.47,154.9c-1.14,4.17-3.38,15.12-1.55,32.31h19.53c.45-3.27-.12-19.24,4.47-34.65a52,52,0,0,0-7.05-.9,78.191,78.191,0,0,0-9.06,0,21.762,21.762,0,0,0-3.81.7,3.62,3.62,0,0,0-2.53,2.54Z" transform="translate(-336.551 -111.266)" fill="#263238"/>
        <path id="Path_321" data-name="Path 321" d="M384.94,156.36c-.59,2.54-.36,8.61,1.41,15.63a105.105,105.105,0,0,1,3.13-17.9h0C388.09,153.92,385.5,154,384.94,156.36Z" transform="translate(-336.551 -111.266)" opacity="0.2"/>
        <path id="Path_322" data-name="Path 322" d="M382.47,143.18c-.84,2.92-1.46,6.53.4,8.48,0,0-1.45,3-6.86,3-4.95,0-2.2-3-2.2-3,3.32-.78,3.53-4.8,3.17-7.06Z" transform="translate(-336.551 -111.266)" fill="#ffc3bd"/>
        <path id="Path_323" data-name="Path 323" d="M376,154.61a5.54,5.54,0,0,1,.78,2.8s7-2.39,7-5.9c0,0-.91-.57-1.48-1C382.32,150.48,381.85,153.21,376,154.61Z" transform="translate(-336.551 -111.266)" fill="#fff"/>
        <path id="Path_324" data-name="Path 324" d="M375.81,154.61a7.33,7.33,0,0,0-1.38,2.59,4.89,4.89,0,0,1-1.63-5.54,12.091,12.091,0,0,1,1.79-.56S373.74,153.86,375.81,154.61Z" transform="translate(-336.551 -111.266)" fill="#fff"/>
        <path id="Path_325" data-name="Path 325" d="M377,144.6a8.83,8.83,0,0,1-.47,4.78,5.371,5.371,0,0,0,1.49-.44c1.92-.87,2.95-2.23,4.08-4.24.11-.52.25-1,.39-1.52Z" transform="translate(-336.551 -111.266)" opacity="0.2"/>
        <path id="Path_326" data-name="Path 326" d="M372.25,141.9a3.34,3.34,0,0,0,1.83,2c1.17.5,2-.57,1.93-1.8s-.81-2.71-2.1-2.69a1.86,1.86,0,0,0-1.66,2.49Z" transform="translate(-336.551 -111.266)" fill="#ffc3bd"/>
        <path id="Path_327" data-name="Path 327" d="M372.25,141.9a3.34,3.34,0,0,0,1.83,2c1.17.5,2-.57,1.93-1.8s-.81-2.71-2.1-2.69a1.86,1.86,0,0,0-1.66,2.49Z" transform="translate(-336.551 -111.266)" opacity="0.2"/>
        <path id="Path_328" data-name="Path 328" d="M377.48,133.73c-.38-2.31-3.79,1.75-3.06,3.89S377.9,136.33,377.48,133.73Z" transform="translate(-336.551 -111.266)" fill="#263238"/>
        <path id="Path_329" data-name="Path 329" d="M384.78,139.59c-1.25,3.87-1.79,6.18-4.24,7.84a4.87,4.87,0,0,1-7.82-4.16c.1-3.66,2.13-9.37,6.27-10.27S386,135.72,384.78,139.59Z" transform="translate(-336.551 -111.266)" fill="#ffc3bd"/>
        <path id="Path_330" data-name="Path 330" d="M383.64,137.3c-4.22-.6-10.28-1.38-8.08-4.83,2.09-3.29,10.43-2.69,7.9-1.23,3.27.19,7.43,1.76,4.29,2.84,2.53,1.8,1.53,6.62-3.3,8.3C383.06,140.36,382,139.47,383.64,137.3Z" transform="translate(-336.551 -111.266)" fill="#263238"/>
        <path id="Path_331" data-name="Path 331" d="M385.38,144.2a4.14,4.14,0,0,1-2.69,1.24c-1.32.07-1.57-1.19-.86-2.28s2.09-2.2,3.25-1.75S386.27,143.28,385.38,144.2Z" transform="translate(-336.551 -111.266)" fill="#ffc3bd"/>
        <path id="Path_332" data-name="Path 332" d="M378.71,139.67c-.08.32-.31.54-.52.51s-.3-.32-.21-.64.31-.55.51-.51S378.8,139.35,378.71,139.67Z" transform="translate(-336.551 -111.266)" fill="#263238"/>
        <path id="Path_333" data-name="Path 333" d="M375.2,139.05c-.08.32-.31.55-.51.51s-.3-.32-.22-.64.31-.54.52-.51S375.29,138.73,375.2,139.05Z" transform="translate(-336.551 -111.266)" fill="#263238"/>
        <path id="Path_334" data-name="Path 334" d="M376.28,139.41a13.29,13.29,0,0,1-2.2,2.46,1.7,1.7,0,0,0,1.41.54Z" transform="translate(-336.551 -111.266)" fill="#ed847e"/>
        <path id="Path_335" data-name="Path 335" d="M376.17,143.45a.09.09,0,0,1-.07-.11.12.12,0,0,1,.12-.08,2.72,2.72,0,0,0,2.26-.63.09.09,0,0,1,.13,0,.1.1,0,0,1,0,.14,2.88,2.88,0,0,1-2.44.68Z" transform="translate(-336.551 -111.266)" fill="#263238"/>
        <path id="Path_336" data-name="Path 336" d="M380.07,138.69a.15.15,0,0,1-.12-.1,1.34,1.34,0,0,0-1-.83.16.16,0,0,1-.15-.2.21.21,0,0,1,.22-.17,1.66,1.66,0,0,1,1.29,1,.2.2,0,0,1-.11.25.17.17,0,0,1-.13.05Z" transform="translate(-336.551 -111.266)" fill="#263238"/>
        <path id="Path_337" data-name="Path 337" d="M374,137.5a.1.1,0,0,1-.07,0,.18.18,0,0,1,0-.26,2.07,2.07,0,0,1,1.63-.73.18.18,0,0,1,.15.21.21.21,0,0,1-.23.17h0a1.64,1.64,0,0,0-1.28.59.18.18,0,0,1-.2.02Z" transform="translate(-336.551 -111.266)" fill="#263238"/>
        <path id="Path_338" data-name="Path 338" d="M391.64,157.91l-5.29,2.81s5.11,12.6,4.24,14.49c-1.19,2.58-3.16,8.25-5.1,11.06a5.11,5.11,0,0,0,1.41,2.46c4.24-2.56,9.45-11.21,9.68-13.71C397.1,169.31,391.64,157.91,391.64,157.91Z" transform="translate(-336.551 -111.266)" fill="#ffc3bd"/>
        <path id="Path_339" data-name="Path 339" d="M389.92,152.56c3.7.65,6.42,13.83,6.42,13.83L387.22,169a67.688,67.688,0,0,1-3.21-9.34C382.8,154.78,386,151.85,389.92,152.56Z" transform="translate(-336.551 -111.266)" fill="#263238"/>
        <path id="Path_340" data-name="Path 340" d="M387.41,185.8l-3.77-.27,1.62,4.18s3.32.13,4.1-2.41Z" transform="translate(-336.551 -111.266)" fill="#ffc3bd"/>
        <path id="Path_341" data-name="Path 341" d="M380.38,187.45l1.67,3.7,3.21-1.44-1.62-4.18Z" transform="translate(-336.551 -111.266)" fill="#ffc3bd"/>
      </g>
      <ellipse id="Ellipse_14" data-name="Ellipse 14" cx="32.08" cy="29.96" rx="32.08" ry="29.96" transform="translate(98.872 202.732) rotate(-44.02)" fill="#407bff"/>
      <ellipse id="Ellipse_15" data-name="Ellipse 15" cx="30.39" cy="28.38" rx="30.39" ry="28.38" transform="translate(101.186 202.684) rotate(-44.02)" fill="#fff"/>
      <g id="Group_20" data-name="Group 20" transform="translate(101.186 160.447)" clip-path="url(#clip-path)">
        <path id="Path_342" data-name="Path 342" d="M357.84,310.34l-5.43-1.77s-5.91,13-7.84,13.78c-2.64,1-8,3.81-11.31,4.48a5.88,5.88,0,0,0-.9,2.83c4.58,1.18,14.21-1.42,16.18-3.11C353,322.71,357.84,310.34,357.84,310.34Z" transform="translate(-326.486 -258.317)" fill="#ffb573"/>
        <path id="Path_343" data-name="Path 343" d="M362.57,302.41c.88,3.64-7.16,13.95-7.16,13.95l-6.51-4.12a32.691,32.691,0,0,1,4.89-9.75C356.47,299.16,361.6,298.42,362.57,302.41Z" transform="translate(-326.486 -258.317)" fill="#407bff"/>
        <path id="Path_344" data-name="Path 344" d="M362.57,302.41c.88,3.64-7.16,13.95-7.16,13.95l-6.51-4.12a32.691,32.691,0,0,1,4.89-9.75C356.47,299.16,361.6,298.42,362.57,302.41Z" transform="translate(-326.486 -258.317)" opacity="0.3"/>
        <path id="Path_345" data-name="Path 345" d="M357.49,306.94c.61,2.52.06,6.55-1.55,10C354.51,314.77,352.84,309.6,357.49,306.94Z" transform="translate(-326.486 -258.317)" opacity="0.2"/>
        <path id="Path_346" data-name="Path 346" d="M357.4,302c-1.14,4.17-3.37,15.12-1.55,32.31h19.54c.45-3.27-.13-19.24,4.46-34.65a52.005,52.005,0,0,0-7.05-.9,78.191,78.191,0,0,0-9.06,0,21.935,21.935,0,0,0-3.81.7A3.64,3.64,0,0,0,357.4,302Z" transform="translate(-326.486 -258.317)" fill="#407bff"/>
        <path id="Path_347" data-name="Path 347" d="M357.4,302c-1.14,4.17-3.37,15.12-1.55,32.31h19.54c.45-3.27-.13-19.24,4.46-34.65a52.005,52.005,0,0,0-7.05-.9,78.191,78.191,0,0,0-9.06,0,21.935,21.935,0,0,0-3.81.7A3.64,3.64,0,0,0,357.4,302Z" transform="translate(-326.486 -258.317)" opacity="0.3"/>
        <path id="Path_348" data-name="Path 348" d="M374.94,306.69c-.59,2.54-1.11,8.57,1.34,12.35a105.19,105.19,0,0,1,3.14-17.9h0C378,301,375.5,304.31,374.94,306.69Z" transform="translate(-326.486 -258.317)" opacity="0.2"/>
        <g id="Group_19" data-name="Group 19" transform="translate(34.882 40.261)" opacity="0.95">
          <path id="Path_349" data-name="Path 349" d="M365.69,306.56l-1.07.47-.82-.74a6.72,6.72,0,0,1-2.09-7.29,19.418,19.418,0,0,1,2-.29,78.2,78.2,0,0,1,9.06,0,20.357,20.357,0,0,1,2.08.16l-.68.87a25.11,25.11,0,0,1-8.48,6.82Z" transform="translate(-361.368 -298.579)" fill="#fff"/>
        </g>
        <path id="Path_350" data-name="Path 350" d="M372.41,290.23c-.85,2.92-1.47,6.53.39,8.48a23.25,23.25,0,0,1-7.74,6.21,4.93,4.93,0,0,1-1.32-6.21c3.33-.78,3.53-4.8,3.17-7.06Z" transform="translate(-326.486 -258.317)" fill="#ffb573"/>
        <path id="Path_351" data-name="Path 351" d="M366.91,291.65a8.83,8.83,0,0,1-.47,4.78,5.53,5.53,0,0,0,1.5-.44c1.91-.87,2.94-2.23,4.07-4.24.12-.52.25-1,.4-1.52Z" transform="translate(-326.486 -258.317)" opacity="0.2"/>
        <path id="Path_352" data-name="Path 352" d="M362.18,289a3.32,3.32,0,0,0,1.84,2c1.17.5,2-.57,1.92-1.8s-.81-2.71-2.09-2.69a1.86,1.86,0,0,0-1.67,2.49Z" transform="translate(-326.486 -258.317)" fill="#ffb573"/>
        <path id="Path_353" data-name="Path 353" d="M362.18,289a3.32,3.32,0,0,0,1.84,2c1.17.5,2-.57,1.92-1.8s-.81-2.71-2.09-2.69a1.86,1.86,0,0,0-1.67,2.49Z" transform="translate(-326.486 -258.317)" opacity="0.2"/>
        <path id="Path_354" data-name="Path 354" d="M366.81,282.11c-.38-2.61-3.28.38-3.61,2.29s1.27,3.84,2.36,2S367,283.52,366.81,282.11Z" transform="translate(-326.486 -258.317)" fill="#263238"/>
        <path id="Path_355" data-name="Path 355" d="M374.71,286.64c-1.25,3.87-1.79,6.17-4.24,7.84a4.87,4.87,0,0,1-7.82-4.16c.1-3.66,2.13-9.37,6.27-10.27S376,282.77,374.71,286.64Z" transform="translate(-326.486 -258.317)" fill="#ffb573"/>
        <path id="Path_356" data-name="Path 356" d="M372.82,290.69c-1.5-1-1.77-1.38-1-2.28,1.3-1.46-.63-1.67.39-3.48,1.42-2.52-3.11-.75-3.19-2.58-.07-1.49-4,1.19-4.41-.53-.59-2.58,3.19-2.1,3.85-3.36s4.54-1.45,5.16.39,2.57.37,3.84,2.61-1.36,2.41-.09,4.59c1,1.75-.93,3-2.3,4.39C374.25,291.34,373.75,291.32,372.82,290.69Z" transform="translate(-326.486 -258.317)" fill="#263238"/>
        <path id="Path_357" data-name="Path 357" d="M375.56,290.72a4.12,4.12,0,0,1-2.58,1.47c-1.32.18-1.68-1-1.06-2.19s1.9-2.36,3.1-2S376.37,289.73,375.56,290.72Z" transform="translate(-326.486 -258.317)" fill="#ffb573"/>
        <path id="Path_358" data-name="Path 358" d="M368.64,286.72c-.08.32-.31.54-.51.51s-.3-.32-.22-.64.31-.55.52-.51S368.73,286.4,368.64,286.72Z" transform="translate(-326.486 -258.317)" fill="#263238"/>
        <path id="Path_359" data-name="Path 359" d="M365.14,286.1c-.09.32-.32.55-.52.51s-.3-.32-.22-.64.32-.54.52-.51S365.22,285.78,365.14,286.1Z" transform="translate(-326.486 -258.317)" fill="#263238"/>
        <path id="Path_360" data-name="Path 360" d="M366.21,286.46a13.089,13.089,0,0,1-2.19,2.46,1.7,1.7,0,0,0,1.41.54Z" transform="translate(-326.486 -258.317)" fill="#ed893e"/>
        <path id="Path_361" data-name="Path 361" d="M366.1,290.5a.08.08,0,0,1-.06-.11.1.1,0,0,1,.11-.08,2.72,2.72,0,0,0,2.26-.63.092.092,0,0,1,.13.13,2.88,2.88,0,0,1-2.44.69Z" transform="translate(-326.486 -258.317)" fill="#263238"/>
        <path id="Path_362" data-name="Path 362" d="M370,285.74a.15.15,0,0,1-.12-.1,1.34,1.34,0,0,0-1-.83.17.17,0,0,1-.15-.2.21.21,0,0,1,.22-.17,1.66,1.66,0,0,1,1.29,1,.2.2,0,0,1-.11.25.17.17,0,0,1-.13.05Z" transform="translate(-326.486 -258.317)" fill="#263238"/>
        <path id="Path_363" data-name="Path 363" d="M363.89,284.55a.13.13,0,0,1-.07,0,.18.18,0,0,1,0-.26,2,2,0,0,1,1.62-.73.18.18,0,0,1,.15.21.21.21,0,0,1-.22.17h0a1.62,1.62,0,0,0-1.28.59.2.2,0,0,1-.2.02Z" transform="translate(-326.486 -258.317)" fill="#263238"/>
        <path id="Path_364" data-name="Path 364" d="M382,305.41l-5.56,2.12s3.39,13.27,2.29,15.05c-1.5,2.43-4.17,7.85-6.44,10.41a5.12,5.12,0,0,0,1.07,2.64c4.49-2,10.74-10,11.29-12.47C385.88,317.51,382,305.41,382,305.41Z" transform="translate(-326.486 -258.317)" fill="#ffb573"/>
        <path id="Path_365" data-name="Path 365" d="M381,299.83c3.55,1.13,4.52,14.66,4.52,14.66l-9.3,1.44a68.356,68.356,0,0,1-1.94-9.75C373.7,301.14,377.18,298.62,381,299.83Z" transform="translate(-326.486 -258.317)" fill="#407bff"/>
        <path id="Path_366" data-name="Path 366" d="M381,299.83c3.55,1.13,4.52,14.66,4.52,14.66l-9.3,1.44a68.356,68.356,0,0,1-1.94-9.75C373.7,301.14,377.18,298.62,381,299.83Z" transform="translate(-326.486 -258.317)" opacity="0.3"/>
        <path id="Path_367" data-name="Path 367" d="M374.21,332.77l-3.67-.76,1.06,4.39s3.24.56,4.34-1.88Z" transform="translate(-326.486 -258.317)" fill="#ffb573"/>
        <path id="Path_368" data-name="Path 368" d="M367.1,333.52l1.16,3.91,3.34-1.03-1.06-4.39Z" transform="translate(-326.486 -258.317)" fill="#ffb573"/>
      </g>
      <ellipse id="Ellipse_17" data-name="Ellipse 17" cx="32.08" cy="29.96" rx="32.08" ry="29.96" transform="translate(11.435 129.207) rotate(-44.02)" fill="#407bff"/>
      <ellipse id="Ellipse_18" data-name="Ellipse 18" cx="30.39" cy="28.38" rx="30.39" ry="28.38" transform="translate(13.748 129.169) rotate(-44.02)" fill="#fff"/>
      <g id="Group_21" data-name="Group 21" transform="translate(13.748 86.932)" clip-path="url(#clip-path)">
        <path id="Path_369" data-name="Path 369" d="M292.91,233.25c.15,2.38.27,4.78.36,7.17l.29,7.14.05.87.07.76c.08.52.14,1.06.25,1.62.21,1.1.48,2.22.8,3.34.6,2.25,1.33,4.52,2,6.76l-2.07,1a54.1,54.1,0,0,1-3.31-6.59c-.46-1.15-.89-2.32-1.26-3.55a18.191,18.191,0,0,1-.49-1.9l-.17-1-.1-.92c-.53-4.84-.88-9.61-1.07-14.42Z" transform="translate(-239.048 -184.802)" fill="#ff8b7b"/>
        <path id="Path_370" data-name="Path 370" d="M291.81,228c1.82.47,2.6,8.13,2.6,8.13L287,241s-2.31-9.07-.74-11.11S289.14,227.32,291.81,228Z" transform="translate(-239.048 -184.802)" fill="#407bff"/>
        <path id="Path_371" data-name="Path 371" d="M291.52,229.72l.9,7.71-3.01,1.96Z" transform="translate(-239.048 -184.802)" opacity="0.2"/>
        <path id="Path_372" data-name="Path 372" d="M296.79,260.39l2,4.25-3.94.11s-1.15-3,.07-4.53Z" transform="translate(-239.048 -184.802)" fill="#ffb573"/>
        <path id="Path_373" data-name="Path 373" d="M271.5,208.28c-3.13.45-9.68,15.41,1,22.39s18.56-.95,18.56-.95-6.5-7.72-5.56-12.76,5-11.39-3.32-13.51C276.32,202,268.44,203.4,271.5,208.28Z" transform="translate(-239.048 -184.802)" fill="#263238"/>
        <path id="Path_374" data-name="Path 374" d="M298.97,266.74l-3.34-.28-.74-1.71,3.95-.11Z" transform="translate(-239.048 -184.802)" fill="#ffb573"/>
        <path id="Path_375" data-name="Path 375" d="M291.81,228s2.09.76-4,27.24H269.46c.82-7.46,1.14-12.06-1.38-27.37a55.33,55.33,0,0,1,7.86-1,59.162,59.162,0,0,1,8.32,0C287.81,227.18,291.81,228,291.81,228Z" transform="translate(-239.048 -184.802)" fill="#407bff"/>
        <path id="Path_376" data-name="Path 376" d="M269.18,233.94c1.63.41,3,2.22,2.63,5.56a8.66,8.66,0,0,1-1.82,4.2c-.11-2.57-.4-5.55-.92-9.36Z" transform="translate(-239.048 -184.802)" opacity="0.2"/>
        <path id="Path_377" data-name="Path 377" d="M282.89,232.72s-3.17,2.48-3.35,5.11c-2.37-1.83-5.4-6.81-5.53-10a1,1,0,0,1,1-1,5.786,5.786,0,0,0,.67-.09.62.62,0,0,1,.53.13Z" transform="translate(-239.048 -184.802)" fill="#fafafa"/>
        <path id="Path_378" data-name="Path 378" d="M282.89,232.72a6.2,6.2,0,0,1,2.91,4.91c2.66-1.85,1.75-7.38.52-10.09a1.32,1.32,0,0,0-1.07-.77,3.512,3.512,0,0,1-.83-.13.27.27,0,0,0-.31.21Z" transform="translate(-239.048 -184.802)" fill="#fafafa"/>
        <path id="Path_379" data-name="Path 379" d="M277.4,217.48c.34,2.68.53,7.59-1.46,9.37a21.26,21.26,0,0,0,6.95,5.87c3.92-3,1.37-5.87,1.37-5.87-2.94-.71-2.71-2.92-2.05-5Z" transform="translate(-239.048 -184.802)" fill="#ff8b7b"/>
        <path id="Path_380" data-name="Path 380" d="M279.36,219.26l2.85,2.58a8.864,8.864,0,0,0-.36,1.48c-1.13-.17-2.85-1.14-3-2.38a3.79,3.79,0,0,1,.51-1.68Z" transform="translate(-239.048 -184.802)" opacity="0.2"/>
        <path id="Path_381" data-name="Path 381" d="M273.21,213.18c.94,4.31,1.25,6.15,3.83,7.9a6,6,0,0,0,9.45-4.41c.35-4.13-1.25-10.48-5.85-11.26a6.55,6.55,0,0,0-7.43,7.77Z" transform="translate(-239.048 -184.802)" fill="#ff8b7b"/>
        <path id="Path_382" data-name="Path 382" d="M274.44,217.06c2.77-2.64,2.87-5.91,2.17-6.93,2.38-.2,8.54-1.7,7.55-4s-10.58-3.54-11.9,2.34C269.08,211.13,271.11,216.46,274.44,217.06Z" transform="translate(-239.048 -184.802)" fill="#263238"/>
        <path id="Path_383" data-name="Path 383" d="M280.45,212.79c.06.36.29.6.53.55s.38-.38.32-.73-.29-.61-.52-.55A.633.633,0,0,0,280.45,212.79Z" transform="translate(-239.048 -184.802)" fill="#263238"/>
        <path id="Path_384" data-name="Path 384" d="M284.53,211.9c.05.36.29.6.52.55s.39-.38.33-.74-.29-.6-.52-.55a.62.62,0,0,0-.33.74Z" transform="translate(-239.048 -184.802)" fill="#263238"/>
        <path id="Path_385" data-name="Path 385" d="M284.75,211.21l.83-.44S285.24,211.53,284.75,211.21Z" transform="translate(-239.048 -184.802)" fill="#263238"/>
        <path id="Path_386" data-name="Path 386" d="M283.37,212.82a9,9,0,0,0,1.63,2,1.67,1.67,0,0,1-1.25.52Z" transform="translate(-239.048 -184.802)" fill="#ff5652"/>
        <path id="Path_387" data-name="Path 387" d="M282,217.14a3.641,3.641,0,0,0,.54-.07.12.12,0,0,0,.09-.13.09.09,0,0,0-.12-.08,2.75,2.75,0,0,1-2.5-.59.11.11,0,0,0-.15,0,.1.1,0,0,0,0,.15,2.77,2.77,0,0,0,2.14.72Z" transform="translate(-239.048 -184.802)" fill="#263238"/>
        <path id="Path_388" data-name="Path 388" d="M272.63,217.48a3,3,0,0,0,2,1.37c1.12.21,1.65-.83,1.32-1.84s-1.24-2.11-2.35-1.86a1.54,1.54,0,0,0-.97,2.33Z" transform="translate(-239.048 -184.802)" fill="#ff8b7b"/>
        <path id="Path_389" data-name="Path 389" d="M278.54,212a.22.22,0,0,0,.19-.17,2.76,2.76,0,0,1,1.44-1.52.22.22,0,0,0,.12-.29.2.2,0,0,0-.27-.1,3.22,3.22,0,0,0-1.71,1.83.2.2,0,0,0,.16.25.08.08,0,0,0,.07,0Z" transform="translate(-239.048 -184.802)" fill="#263238"/>
        <path id="Path_390" data-name="Path 390" d="M285.52,209.06a.23.23,0,0,0,.19-.1.22.22,0,0,0,0-.3,2.12,2.12,0,0,0-1.92-.25.23.23,0,0,0-.13.28.21.21,0,0,0,.28.12,1.62,1.62,0,0,1,1.51.21Z" transform="translate(-239.048 -184.802)" fill="#263238"/>
        <path id="Path_391" data-name="Path 391" d="M280.68,212.1l.83-.44S281.16,212.43,280.68,212.1Z" transform="translate(-239.048 -184.802)" fill="#263238"/>
        <path id="Path_392" data-name="Path 392" d="M269.26,254.17l-.58,1.64c-.08.13.07.26.28.26h18.86c.17,0,.31-.08.33-.19l.27-1.64c0-.11-.11-.21-.3-.21H269.57A.35.35,0,0,0,269.26,254.17Z" transform="translate(-239.048 -184.802)" fill="#407bff"/>
        <path id="Path_393" data-name="Path 393" d="M269.26,254.17l-.58,1.64c-.08.13.07.26.28.26h18.86c.17,0,.31-.08.33-.19l.27-1.64c0-.11-.11-.21-.3-.21H269.57A.35.35,0,0,0,269.26,254.17Z" transform="translate(-239.048 -184.802)" fill="#fff" opacity="0.2"/>
        <path id="Path_394" data-name="Path 394" d="M271.67,256.24h-.5c-.1,0-.17-.05-.16-.11l.38-2.13c0-.06.1-.11.2-.11h.5c.1,0,.17.05.16.11l-.38,2.13C271.86,256.19,271.77,256.24,271.67,256.24Z" transform="translate(-239.048 -184.802)" fill="#407bff"/>
        <path id="Path_395" data-name="Path 395" d="M271.67,256.24h-.5c-.1,0-.17-.05-.16-.11l.38-2.13c0-.06.1-.11.2-.11h.5c.1,0,.17.05.16.11l-.38,2.13C271.86,256.19,271.77,256.24,271.67,256.24Z" transform="translate(-239.048 -184.802)" opacity="0.4"/>
        <path id="Path_396" data-name="Path 396" d="M286.41,256.24h-.5c-.1,0-.17-.05-.16-.11l.38-2.13c0-.06.1-.11.2-.11h.5c.1,0,.17.05.16.11l-.38,2.13C286.6,256.19,286.51,256.24,286.41,256.24Z" transform="translate(-239.048 -184.802)" fill="#407bff"/>
        <path id="Path_397" data-name="Path 397" d="M286.41,256.24h-.5c-.1,0-.17-.05-.16-.11l.38-2.13c0-.06.1-.11.2-.11h.5c.1,0,.17.05.16.11l-.38,2.13C286.6,256.19,286.51,256.24,286.41,256.24Z" transform="translate(-239.048 -184.802)" opacity="0.4"/>
        <path id="Path_398" data-name="Path 398" d="M279.07,256.24h-.5c-.1,0-.17-.05-.16-.11l.38-2.13c0-.06.1-.11.2-.11h.5c.1,0,.17.05.16.11l-.38,2.13C279.26,256.19,279.17,256.24,279.07,256.24Z" transform="translate(-239.048 -184.802)" fill="#407bff"/>
        <path id="Path_399" data-name="Path 399" d="M279.07,256.24h-.5c-.1,0-.17-.05-.16-.11l.38-2.13c0-.06.1-.11.2-.11h.5c.1,0,.17.05.16.11l-.38,2.13C279.26,256.19,279.17,256.24,279.07,256.24Z" transform="translate(-239.048 -184.802)" opacity="0.4"/>
        <path id="Path_400" data-name="Path 400" d="M280.22,258.9l4.59-2-1.57,4.41s-2.87.65-4-.77Z" transform="translate(-239.048 -184.802)" fill="#ffb573"/>
        <path id="Path_401" data-name="Path 401" d="M270.12,234c-.52,3-1.11,6.09-1.71,9.13-.29,1.52-.62,3-.94,4.55l-.47,2.27-.21,1a.33.33,0,0,0,0,.22,2.87,2.87,0,0,0,.76,1.1,9.619,9.619,0,0,0,1.52,1.21,30.3,30.3,0,0,0,3.83,2.07c1.35.63,2.75,1.21,4.17,1.74s2.87,1,4.3,1.52l-.52,2.23a55.5,55.5,0,0,1-9.23-2.34,28.383,28.383,0,0,1-4.51-2,14.312,14.312,0,0,1-2.21-1.52,6.63,6.63,0,0,1-2-2.62,4.509,4.509,0,0,1-.28-2c.05-.43.07-.52.1-.73l.09-.58.35-2.29c.25-1.53.47-3.06.74-4.59.51-3.05,1-6.1,1.63-9.14Z" transform="translate(-239.048 -184.802)" fill="#ff8b7b"/>
        <path id="Path_402" data-name="Path 402" d="M268.08,227.88c-1.87.56-4.51,6.88-4.51,6.88l6,6.61s3.76-6.8,3.16-9.17S270.22,227.24,268.08,227.88Z" transform="translate(-239.048 -184.802)" fill="#407bff"/>
        <path id="Path_403" data-name="Path 403" d="M288.43,257.83l-1.51,3.63-3.68-.14,1.57-4.41Z" transform="translate(-239.048 -184.802)" fill="#ffb573"/>
      </g>
      <path id="Path_404" data-name="Path 404" d="M257.32,149.85H329a2.68,2.68,0,0,0,2.63-2.47h0a2.27,2.27,0,0,0-2.3-2.46H257.66a2.69,2.69,0,0,0-2.64,2.46h0a2.28,2.28,0,0,0,2.3,2.47Z" transform="translate(-225.3 -97.87)" fill="#407bff" opacity="0.3"/>
      <path id="Path_405" data-name="Path 405" d="M277.12,160.69h51.11a2.7,2.7,0,0,0,2.64-2.47h0a2.27,2.27,0,0,0-2.3-2.46H277.46a2.69,2.69,0,0,0-2.64,2.46h0a2.28,2.28,0,0,0,2.3,2.47Z" transform="translate(-225.3 -97.87)" fill="#407bff" opacity="0.3"/>
      <path id="Path_406" data-name="Path 406" d="M289.06,139h40.66a2.67,2.67,0,0,0,2.63-2.46h0a2.28,2.28,0,0,0-2.29-2.47H289.4a2.68,2.68,0,0,0-2.63,2.47h0a2.27,2.27,0,0,0,2.29,2.46Z" transform="translate(-225.3 -97.87)" fill="#fff"/>
      <path id="Path_407" data-name="Path 407" d="M289.15,308.23h29a2.27,2.27,0,0,1,2.3,2.46h0a2.68,2.68,0,0,1-2.64,2.47h-29a2.28,2.28,0,0,1-2.3-2.47h0A2.68,2.68,0,0,1,289.15,308.23Z" transform="translate(-225.3 -97.87)" fill="#407bff" opacity="0.3"/>
      <path id="Path_408" data-name="Path 408" d="M249.88,308.23h29a2.27,2.27,0,0,1,2.3,2.46h0a2.7,2.7,0,0,1-2.64,2.47h-29a2.28,2.28,0,0,1-2.3-2.47h0a2.67,2.67,0,0,1,2.64-2.46Z" transform="translate(-225.3 -97.87)" fill="#407bff" opacity="0.3"/>
      <path id="Path_409" data-name="Path 409" d="M267.76,297.39h51.11a2.27,2.27,0,0,1,2.3,2.46h0a2.68,2.68,0,0,1-2.63,2.47H267.42a2.27,2.27,0,0,1-2.29-2.47h0A2.67,2.67,0,0,1,267.76,297.39Z" transform="translate(-225.3 -97.87)" fill="#407bff" opacity="0.3"/>
      <path id="Path_410" data-name="Path 410" d="M261,286.54h58.6a2.27,2.27,0,0,1,2.29,2.47h0a2.67,2.67,0,0,1-2.63,2.46H260.69a2.27,2.27,0,0,1-2.3-2.46h0a2.68,2.68,0,0,1,2.61-2.47Z" transform="translate(-225.3 -97.87)" fill="#fff"/>
      <path id="Path_411" data-name="Path 411" d="M382.8,234.7H329.4a2.68,2.68,0,0,0-2.63,2.47h0a2.27,2.27,0,0,0,2.29,2.46h53.4a2.67,2.67,0,0,0,2.63-2.46h0a2.27,2.27,0,0,0-2.29-2.47Z" transform="translate(-225.3 -97.87)" fill="#407bff" opacity="0.3"/>
      <path id="Path_412" data-name="Path 412" d="M355.34,223.86h-25.2a2.68,2.68,0,0,0-2.63,2.47h0a2.27,2.27,0,0,0,2.3,2.46H355a2.69,2.69,0,0,0,2.64-2.46h0a2.28,2.28,0,0,0-2.3-2.47Z" transform="translate(-225.3 -97.87)" fill="#407bff" opacity="0.3"/>
      <path id="Path_413" data-name="Path 413" d="M370.09,213h-39.2a2.69,2.69,0,0,0-2.64,2.46h0a2.28,2.28,0,0,0,2.3,2.47h39.21a2.67,2.67,0,0,0,2.63-2.47h0a2.27,2.27,0,0,0-2.3-2.46Z" transform="translate(-225.3 -97.87)" fill="#fff"/>
      <path id="Path_414" data-name="Path 414" d="M401.8,223.86H366a2.7,2.7,0,0,0-2.64,2.47h0a2.27,2.27,0,0,0,2.3,2.46h35.8a2.69,2.69,0,0,0,2.64-2.46h0a2.28,2.28,0,0,0-2.3-2.47Z" transform="translate(-225.3 -97.87)" fill="#407bff" opacity="0.3"/>
      <path id="Path_415" data-name="Path 415" d="M240.81,121.6h26.78l-1.42-23.73Z" transform="translate(-225.3 -97.87)" fill="#407bff" opacity="0.3"/>
      <path id="Path_416" data-name="Path 416" d="M240.81,121.6l28.67-3.43-3.31-20.3Z" transform="translate(-225.3 -97.87)" fill="#407bff"/>
    </g>
    <g id="freepik--Character--inject-2" transform="translate(102.347 142.02)">
      <path id="Path_417" data-name="Path 417" d="M132.78,191.9c-.85,2-1.79,4.22-2.62,6.36s-1.68,4.33-2.45,6.5a103.539,103.539,0,0,0-3.85,13c-.14.54-.21,1.07-.31,1.6l-.14.8-.11.63a15.18,15.18,0,0,0-.06,2.68,57.49,57.49,0,0,0,.89,6.51c.86,4.49,2,9.14,3.13,13.7l-5.08,2.15a83,83,0,0,1-6.36-13.55,47.419,47.419,0,0,1-2.11-7.6,21,21,0,0,1-.39-4.52v-1.17l.1-1c.07-.65.11-1.32.22-2a90.169,90.169,0,0,1,3.49-14.86c.78-2.39,1.58-4.75,2.51-7.06s1.83-4.58,3-6.95Z" transform="translate(-102.347 -140.02)" fill="#7f3e3b"/>
      <path id="Path_418" data-name="Path 418" d="M127.09,242.44l3.9,3.8-8.51,4s-2.06-3.6-.64-6.86Z" transform="translate(-102.347 -140.02)" fill="#7f3e3b"/>
      <path id="Path_419" data-name="Path 419" d="M134.13,251.91l-7.18,2.94-4.47-4.65,8.51-3.96Z" transform="translate(-102.347 -140.02)" fill="#7f3e3b"/>
      <circle id="Ellipse_20" data-name="Ellipse 20" cx="53.16" cy="53.16" r="53.16" transform="translate(98.878 98.439) rotate(-67.5)" fill="#407bff"/>
      <circle id="Ellipse_21" data-name="Ellipse 21" cx="50.36" cy="50.36" r="50.36" transform="translate(117.973 19.31)" fill="#fff"/>
      <g id="Group_22" data-name="Group 22" transform="translate(117.973 19.31)" clip-path="url(#clip-path-4)">
        <path id="Path_420" data-name="Path 420" d="M292.54,221.28c.56,4.12,1,8.26,1.49,12.39L295.39,246l.18,1.48.21,1.33.29,1.38.35,1.41c.52,1.89,1.11,3.81,1.77,5.73,1.28,3.85,2.78,7.71,4.25,11.55L299,270.74a100.392,100.392,0,0,1-6.38-11.08c-.93-1.94-1.82-3.91-2.58-6l-.56-1.58-.5-1.65c-.15-.57-.28-1.16-.42-1.74l-.31-1.6c-.77-4.18-1.4-8.3-2-12.44s-1.13-8.28-1.57-12.44Z" transform="translate(-220.32 -159.33)" fill="#ff8b7b"/>
        <path id="Path_421" data-name="Path 421" d="M290.05,212.57c3.19.81,5.42,13.94,5.42,13.94l-12.19,8.29s-5-15.56-2.57-19.06C283.27,212.09,285.4,211.39,290.05,212.57Z" transform="translate(-220.32 -159.33)" fill="#407bff"/>
        <path id="Path_422" data-name="Path 422" d="M289.77,215.5l2.45,13.23-4.94,3.35Z" transform="translate(-220.32 -159.33)" opacity="0.2"/>
        <path id="Path_423" data-name="Path 423" d="M302.4,268.1l4,7.28-6.76.18s-2.32-5.18-.4-7.76Z" transform="translate(-220.32 -159.33)" fill="#ffb573"/>
        <path id="Path_424" data-name="Path 424" d="M252.91,178.75c-5.3.77-14.79,26.42,4.36,38.39S289,215.51,289,215.51s-12.05-13.25-11-21.89,7.24-19.53-7.28-23.16C260.43,167.89,247.1,170.37,252.91,178.75Z" transform="translate(-220.32 -159.33)" fill="#263238"/>
        <path id="Path_425" data-name="Path 425" d="M306.89,278.99l-5.77-.48-1.46-2.95,6.76-.18Z" transform="translate(-220.32 -159.33)" fill="#ffb573"/>
        <path id="Path_426" data-name="Path 426" d="M290.05,212.57s3.69,1.3-3.69,46.7H254.93c.53-12.79.54-20.67-5.57-46.92a91.548,91.548,0,0,1,13.34-1.76,98.392,98.392,0,0,1,14.27,0C283.1,211.15,290.05,212.57,290.05,212.57Z" transform="translate(-220.32 -159.33)" fill="#407bff"/>
        <path id="Path_427" data-name="Path 427" d="M252,222.74c2.85.71,5.48,3.81,5.16,9.53a13.75,13.75,0,0,1-2.62,7.2c-.5-4.4-1.35-9.5-2.68-16Z" transform="translate(-220.32 -159.33)" opacity="0.2"/>
        <path id="Path_428" data-name="Path 428" d="M275.32,220.65s-5.15,4.24-5.15,8.75c-4.28-3.13-10.05-11.67-10.66-17.13a1.64,1.64,0,0,1,1.56-1.78,7.588,7.588,0,0,0,1.14-.15,1.08,1.08,0,0,1,.92.23Z" transform="translate(-220.32 -159.33)" fill="#fafafa"/>
        <path id="Path_429" data-name="Path 429" d="M275.32,220.65a11.62,11.62,0,0,1,5.57,8.41c4.33-3.17,2.12-12.65-.29-17.29a2.49,2.49,0,0,0-1.93-1.32c-.64-.08-1.12-.16-1.44-.23a.43.43,0,0,0-.51.37Z" transform="translate(-220.32 -159.33)" fill="#fafafa"/>
        <path id="Path_430" data-name="Path 430" d="M264.12,194.52c.9,4.59,1.8,13-1.42,16.07a40.41,40.41,0,0,0,12.62,10.06c6.37-5.08,1.65-10.06,1.65-10.06-5.12-1.22-5-5-4.09-8.59Z" transform="translate(-220.32 -159.33)" fill="#ff8b7b"/>
        <path id="Path_431" data-name="Path 431" d="M267.69,197.57l5.18,4.43a15.069,15.069,0,0,0-.44,2.53c-1.95-.28-5-1.95-5.45-4.08a6.09,6.09,0,0,1,.71-2.88Z" transform="translate(-220.32 -159.33)" opacity="0.2"/>
        <path id="Path_432" data-name="Path 432" d="M256.42,187.15c2.12,7.38,2.86,10.54,7.5,13.55,7,4.51,15.57.29,15.69-7.58.11-7.08-3.38-18-11.36-19.31a10.48,10.48,0,0,0-11.83,13.34Z" transform="translate(-220.32 -159.33)" fill="#ff8b7b"/>
        <path id="Path_433" data-name="Path 433" d="M259,193.8c4.45-4.54,4.23-10.14,2.91-11.89,4.06-.34,14.45-2.91,12.48-6.84s-18.55-6.07-20.13,4C249.11,183.62,253.21,192.77,259,193.8Z" transform="translate(-220.32 -159.33)" fill="#263238"/>
        <path id="Path_434" data-name="Path 434" d="M268.79,186.48c.14.61.57,1,1,.94s.61-.65.48-1.26-.57-1-1-.94S268.66,185.87,268.79,186.48Z" transform="translate(-220.32 -159.33)" fill="#263238"/>
        <path id="Path_435" data-name="Path 435" d="M275.68,185c.14.61.57,1,1,.94s.61-.65.47-1.26-.57-1-1-.95S275.55,184.34,275.68,185Z" transform="translate(-220.32 -159.33)" fill="#263238"/>
        <path id="Path_436" data-name="Path 436" d="M276,183.76l1.37-.75S276.86,184.32,276,183.76Z" transform="translate(-220.32 -159.33)" fill="#263238"/>
        <path id="Path_437" data-name="Path 437" d="M273.8,186.52a16.67,16.67,0,0,0,3,3.4,2.68,2.68,0,0,1-2.08.89Z" transform="translate(-220.32 -159.33)" fill="#ff5652"/>
        <path id="Path_438" data-name="Path 438" d="M272,193.94a6.352,6.352,0,0,0,.92-.13.184.184,0,0,0-.08-.36,5,5,0,0,1-4.36-1,.19.19,0,0,0-.26,0,.18.18,0,0,0,0,.26A5.13,5.13,0,0,0,272,193.94Z" transform="translate(-220.32 -159.33)" fill="#263238"/>
        <path id="Path_439" data-name="Path 439" d="M255.93,194.51a5.58,5.58,0,0,0,3.58,2.35c1.94.36,2.73-1.41,2-3.15-.62-1.56-2.37-3.62-4.24-3.2a2.53,2.53,0,0,0-1.34,4Z" transform="translate(-220.32 -159.33)" fill="#ff8b7b"/>
        <path id="Path_440" data-name="Path 440" d="M265.42,185.14a.36.36,0,0,0,.31-.29,4.34,4.34,0,0,1,2.29-2.62.365.365,0,1,0-.31-.66,5,5,0,0,0-2.7,3.15.36.36,0,0,0,.29.42.24.24,0,0,0,.12,0Z" transform="translate(-220.32 -159.33)" fill="#263238"/>
        <path id="Path_441" data-name="Path 441" d="M277,180.07a.36.36,0,0,0,.22-.67,3.62,3.62,0,0,0-3.32-.43.37.37,0,0,0-.19.48.36.36,0,0,0,.48.19,2.9,2.9,0,0,1,2.63.37.3.3,0,0,0,.18.06Z" transform="translate(-220.32 -159.33)" fill="#263238"/>
        <path id="Path_442" data-name="Path 442" d="M269.1,185.29l1.37-.75S270,185.85,269.1,185.29Z" transform="translate(-220.32 -159.33)" fill="#263238"/>
        <path id="Path_443" data-name="Path 443" d="M254.46,257.43l-.81,2.81c-.1.22.15.44.52.44h32.34c.28,0,.52-.14.54-.31l.28-2.82c0-.19-.23-.36-.54-.36H255a.57.57,0,0,0-.54.24Z" transform="translate(-220.32 -159.33)" fill="#407bff"/>
        <path id="Path_444" data-name="Path 444" d="M254.46,257.43l-.81,2.81c-.1.22.15.44.52.44h32.34c.28,0,.52-.14.54-.31l.28-2.82c0-.19-.23-.36-.54-.36H255a.57.57,0,0,0-.54.24Z" transform="translate(-220.32 -159.33)" fill="#fff" opacity="0.2"/>
        <path id="Path_445" data-name="Path 445" d="M258.84,261H258c-.17,0-.3-.09-.29-.2l.4-3.65c0-.11.16-.2.33-.2h.85c.17,0,.3.09.29.2l-.4,3.65A.355.355,0,0,1,258.84,261Z" transform="translate(-220.32 -159.33)" fill="#407bff"/>
        <path id="Path_446" data-name="Path 446" d="M258.84,261H258c-.17,0-.3-.09-.29-.2l.4-3.65c0-.11.16-.2.33-.2h.85c.17,0,.3.09.29.2l-.4,3.65A.355.355,0,0,1,258.84,261Z" transform="translate(-220.32 -159.33)" opacity="0.4"/>
        <path id="Path_447" data-name="Path 447" d="M284.12,261h-.86c-.17,0-.3-.09-.28-.2l.4-3.65c0-.11.16-.2.33-.2h.85c.17,0,.3.09.29.2l-.4,3.65A.32.32,0,0,1,284.12,261Z" transform="translate(-220.32 -159.33)" fill="#407bff"/>
        <path id="Path_448" data-name="Path 448" d="M284.12,261h-.86c-.17,0-.3-.09-.28-.2l.4-3.65c0-.11.16-.2.33-.2h.85c.17,0,.3.09.29.2l-.4,3.65A.32.32,0,0,1,284.12,261Z" transform="translate(-220.32 -159.33)" opacity="0.4"/>
        <path id="Path_449" data-name="Path 449" d="M271.53,261h-.85c-.17,0-.3-.09-.29-.2l.4-3.65c0-.11.16-.2.33-.2H272c.17,0,.3.09.29.2l-.4,3.65A.4.4,0,0,1,271.53,261Z" transform="translate(-220.32 -159.33)" fill="#407bff"/>
        <path id="Path_450" data-name="Path 450" d="M271.53,261h-.85c-.17,0-.3-.09-.29-.2l.4-3.65c0-.11.16-.2.33-.2H272c.17,0,.3.09.29.2l-.4,3.65A.4.4,0,0,1,271.53,261Z" transform="translate(-220.32 -159.33)" opacity="0.4"/>
        <path id="Path_451" data-name="Path 451" d="M273.81,265.55l7.63-3.42-2.17,7.57s-4.85,1.1-6.95-1.33Z" transform="translate(-220.32 -159.33)" fill="#ffb573"/>
        <path id="Path_452" data-name="Path 452" d="M253.56,222.56c-.26,2.66-.59,5.32-.88,8l-1,8c-.32,2.65-.74,5.3-1.1,8l-.57,4-.18,1.26a1.33,1.33,0,0,0,.16.56,7.151,7.151,0,0,0,1.69,2,23.53,23.53,0,0,0,2.82,2,57.312,57.312,0,0,0,6.71,3.5c2.36,1.07,4.79,2,7.26,2.93s5,1.78,7.45,2.59l-.88,3.82a99.881,99.881,0,0,1-15.95-3.94,52.4,52.4,0,0,1-7.82-3.28,27,27,0,0,1-3.84-2.43,13.441,13.441,0,0,1-3.6-3.93,8.64,8.64,0,0,1-1-3.25,5.775,5.775,0,0,1,0-.93c.05-.31,0-.7.05-.8l.09-1,.34-4c.25-2.66.44-5.33.73-8l.81-8c.32-2.66.59-5.32.94-8Z" transform="translate(-220.32 -159.33)" fill="#ff8b7b"/>
        <path id="Path_453" data-name="Path 453" d="M249.36,212.35c-3.15,1-6.93,11.8-6.93,11.8l11,11.34s5.65-11.66,4.32-15.73C256.4,215.52,253,211.25,249.36,212.35Z" transform="translate(-220.32 -159.33)" fill="#407bff"/>
        <path id="Path_454" data-name="Path 454" d="M287.76,263.7l-2.16,6.24-6.33-.24,2.17-7.57Z" transform="translate(-220.32 -159.33)" fill="#ffb573"/>
      </g>
      <path id="Path_455" data-name="Path 455" d="M222.52,222.66a49.87,49.87,0,1,1,61.13,35.18,49.87,49.87,0,0,1-61.13-35.18Z" transform="translate(-102.347 -140.02)" fill="#407bff" opacity="0.2"/>
      <path id="Path_456" data-name="Path 456" d="M306.82,175.32l-41.07,84a48.129,48.129,0,0,0,10.59-.09l36.93-75.5a49.237,49.237,0,0,0-6.45-8.41Zm12,21.38-.27-1-29.49,60.32a49.88,49.88,0,0,0,29.76-59.32Zm-61.13-35.17a49.88,49.88,0,0,0-20,85.58L280,160.68a49.63,49.63,0,0,0-22.31.85Z" transform="translate(-102.347 -140.02)" fill="#fff" opacity="0.2"/>
      <path id="Path_457" data-name="Path 457" d="M214.56,204.27l-1-.1c.16-1.71.41-3.43.73-5.11l1,.19C215,200.9,214.73,202.59,214.56,204.27Zm1.94-10.15-1-.28a58.1,58.1,0,0,1,5.5-12.75l.87.5a57.08,57.08,0,0,0-5.37,12.53Z" transform="translate(-102.347 -140.02)" fill="#407bff"/>
      <path id="Path_458" data-name="Path 458" d="M322.66,195.67a53.84,53.84,0,1,0-38,66,53.84,53.84,0,0,0,38-66Zm-100.14,27a40.655,40.655,0,1,0,0-.01Z" transform="translate(-102.347 -140.02)" fill="#407bff"/>
      <path id="Path_459" data-name="Path 459" d="M223.32,230.91c0,2.29-.59,2.59-1.22,2.66l-1.81.48-3.63,1-7.26,1.92-14.55,3.73q-14.57,3.66-29.18,7.13l-29.22,7-14.59,3.54c-4.86,1.21-9.74,2.33-14.55,3.73a3.872,3.872,0,1,1-2.18-7.43h.16c4.87-1.2,9.65-2.69,14.45-4.08l14.4-4.27,28.77-8.66q14.39-4.35,28.81-8.51L206.17,225l7.24-2,3.62-1,1.81-.5c.58-.25,1.22-.28,2.4,1.69a14.83,14.83,0,0,1,2.08,7.72Z" transform="translate(-102.347 -140.02)" fill="#595b5e"/>
      <path id="Path_460" data-name="Path 460" d="M160.4,156.3c0,.59.31,1.07.7,1.07s.7-.48.7-1.07-.31-1.08-.7-1.08S160.4,155.7,160.4,156.3Z" transform="translate(-102.347 -140.02)" fill="#263238"/>
      <path id="Path_461" data-name="Path 461" d="M160.66,157.37a21.16,21.16,0,0,0,2.82,5.07,3.41,3.41,0,0,1-2.83.53Z" transform="translate(-102.347 -140.02)" fill="#630f0f"/>
      <path id="Path_462" data-name="Path 462" d="M158.3,153a.35.35,0,0,1-.2-.63,3.49,3.49,0,0,1,3.13-.54.348.348,0,1,1-.25.65h0a2.79,2.79,0,0,0-2.48.45A.31.31,0,0,1,158.3,153Z" transform="translate(-102.347 -140.02)" fill="#263238"/>
      <path id="Path_463" data-name="Path 463" d="M141.32,160.13c.53,5.79.6,16.32-3.49,19.77,0,0,.93,5.91,10.87,6.83,10.93,1,5.76-5.29,5.76-5.29-5.83-2.07-5.24-6.77-3.79-11.09Z" transform="translate(-102.347 -140.02)" fill="#7f3e3b"/>
      <path id="Path_464" data-name="Path 464" d="M125.33,397.31c-.86.36-2.83-.51-3.46-.88a.15.15,0,0,1-.08-.16.17.17,0,0,1,.12-.15c.1,0,2.44-.78,3.39-.23a.81.81,0,0,1,.41.55.7.7,0,0,1-.23.79.71.71,0,0,1-.15.08Zm-2.91-1c1,.5,2.43.92,2.85.62,0,0,.17-.12.1-.44a.48.48,0,0,0-.24-.32,4.73,4.73,0,0,0-2.71.16Z" transform="translate(-102.347 -140.02)" fill="#407bff"/>
      <path id="Path_465" data-name="Path 465" d="M122.51,396.29a2.889,2.889,0,0,1-.51.16.15.15,0,0,1-.17-.05.19.19,0,0,1,0-.18c0-.08.81-2.06,1.83-2.48h0a.94.94,0,0,1,.77,0,.55.55,0,0,1,.4.59C124.73,395,123.44,395.9,122.51,396.29Zm-.24-.28c.9-.34,2.13-1.22,2.19-1.71,0-.05,0-.15-.2-.25a.58.58,0,0,0-.5,0h0c-.65.28-1.23,1.39-1.49,1.95Z" transform="translate(-102.347 -140.02)" fill="#407bff"/>
      <path id="Path_466" data-name="Path 466" d="M170.76,409.11a13.4,13.4,0,0,1-2.25-.2.18.18,0,0,1-.14-.14.16.16,0,0,1,.09-.18c.11-.07,2.67-1.53,3.9-1.2a.9.9,0,0,1,.55.41.66.66,0,0,1,0,.76C172.62,409,171.71,409.11,170.76,409.11Zm-1.69-.46c1.37.19,3.23.18,3.57-.29a.53.53,0,0,0,0-.39.51.51,0,0,0-.34-.24c-.79-.21-2.3.46-3.23.92Z" transform="translate(-102.347 -140.02)" fill="#407bff"/>
      <path id="Path_467" data-name="Path 467" d="M168.54,408.91a.19.19,0,0,1-.1,0,.17.17,0,0,1-.07-.16,4.955,4.955,0,0,1,1.14-2.83,1.33,1.33,0,0,1,1-.3c.47.05.61.29.64.49.14.83-1.62,2.42-2.5,2.82Zm1.8-3a1,1,0,0,0-.61.23,4.15,4.15,0,0,0-1,2.26c.91-.54,2.1-1.79,2-2.29,0,0,0-.16-.34-.19Z" transform="translate(-102.347 -140.02)" fill="#407bff"/>
      <path id="Path_468" data-name="Path 468" d="M160.47,408.74h7.34l.73-17.01H161.2Z" transform="translate(-102.347 -140.02)" fill="#7f3e3b"/>
      <path id="Path_469" data-name="Path 469" d="M113.67,394.7l7.22,1.36,8.13-15.79-7.22-1.35Z" transform="translate(-102.347 -140.02)" fill="#7f3e3b"/>
      <path id="Path_470" data-name="Path 470" d="M121.68,395.31l-7.9-2.38a.64.64,0,0,0-.74.3l-3.28,5.84a1.08,1.08,0,0,0,.66,1.56c2.77.78,4.16,1,7.63,2.07,2.14.64,7.76,3,10.72,3.87s4.21-1.92,3.08-2.55c-5.06-2.81-7.89-5.85-9.16-7.93a1.76,1.76,0,0,0-1.01-.78Z" transform="translate(-102.347 -140.02)" fill="#263238"/>
      <path id="Path_471" data-name="Path 471" d="M167.76,407.89h-8a.63.63,0,0,0-.62.5l-1.45,6.53a1.06,1.06,0,0,0,1.05,1.3c2.9,0,7.08-.21,10.72-.21,4.25,0,7.92.23,12.91.23,3,0,3.85-3.05,2.59-3.33-5.75-1.25-10.44-1.39-15.41-4.45a3.41,3.41,0,0,0-1.79-.57Z" transform="translate(-102.347 -140.02)" fill="#263238"/>
      <path id="Path_472" data-name="Path 472" d="M124,181.77c-6.38,3-9,23.56-9,23.56l14.65,5.75a116.482,116.482,0,0,0,5.5-17.15C137.25,184.65,130.55,178.65,124,181.77Z" transform="translate(-102.347 -140.02)" fill="#ffb547"/>
      <path id="Path_473" data-name="Path 473" d="M124,181.77c-6.38,3-9,23.56-9,23.56l14.65,5.75a116.482,116.482,0,0,0,5.5-17.15C137.25,184.65,130.55,178.65,124,181.77Z" transform="translate(-102.347 -140.02)" fill="none" opacity="0.3"/>
      <path id="Path_474" data-name="Path 474" d="M133.53,187.8a8.18,8.18,0,0,1,1.56-.57,13.46,13.46,0,0,1,.06,6.7,116.482,116.482,0,0,1-5.5,17.15l-4.83-1.89C125.71,203.82,128.44,190.24,133.53,187.8Z" transform="translate(-102.347 -140.02)" opacity="0.2"/>
      <path id="Path_475" data-name="Path 475" d="M166.52,181.61s7.82,8.83.43,63.5H127.66c-.27-6,3.52-35.46-2.3-63.88a102.863,102.863,0,0,1,13.16-1.66,145.272,145.272,0,0,1,16.7,0A73.5,73.5,0,0,1,166.52,181.61Z" transform="translate(-102.347 -140.02)" fill="#ffb547"/>
      <path id="Path_477" data-name="Path 477" d="M158.61,193.33c1.78-5.34,6.06-7.05,10.42-3.88.88,5.18,1.5,13.53.79,26.77l-7.67-.07S156,201.28,158.61,193.33Z" transform="translate(-102.347 -140.02)" opacity="0.2"/>
      <path id="Path_478" data-name="Path 478" d="M171.06,189.68c.38,2.29.8,4.79,1.27,7.17s1,4.8,1.56,7.16a88.541,88.541,0,0,0,4.21,13.61c.45,1,.91,2.06,1.42,3l.65,1.18a4.492,4.492,0,0,0,.57.74,21.49,21.49,0,0,0,5,3.54A118.572,118.572,0,0,0,199.07,232l-1.09,5.4a61.1,61.1,0,0,1-15.78-3.22,33.5,33.5,0,0,1-4-1.69,23.21,23.21,0,0,1-4-2.59,14.561,14.561,0,0,1-2-2l-.48-.63-.31-.47c-.21-.31-.42-.62-.61-.93-.78-1.25-1.47-2.5-2.11-3.76a83.06,83.06,0,0,1-5.54-15.27c-.67-2.57-1.29-5.13-1.79-7.72s-1-5.12-1.3-7.88Z" transform="translate(-102.347 -140.02)" fill="#7f3e3b"/>
      <path id="Path_479" data-name="Path 479" d="M156.7,187c-2.07,6.71,6.33,26.71,6.33,26.71l17.69-4.45a81.818,81.818,0,0,0-5.43-18.39C169.55,178.39,159.19,178.91,156.7,187Z" transform="translate(-102.347 -140.02)" fill="#ffb547"/>
      <path id="Path_481" data-name="Path 481" d="M199.18,232l7.59,3.41-7.36,6.07s-3.24-1.06-3.77-6.38l-1.13-4.42,3.33.85a7.88,7.88,0,0,1,1.34.47Z" transform="translate(-102.347 -140.02)" fill="#7f3e3b"/>
      <path id="Path_482" data-name="Path 482" d="M210.8,239.09l-7.39,4.41-4-2.06,7.35-6.07Z" transform="translate(-102.347 -140.02)" fill="#7f3e3b"/>
      <path id="Path_483" data-name="Path 483" d="M158.56,178.92c-3.17-2.68-10.87-4.61-19.49-5.09-4.93-.27-10,.54-12.11,1.48s.39,7.73,3.15,7.88c-1.46,2.3.66,6.74,3.83,7.61-.5,3.84,9.18,4.2,15,1.1C153.64,189.43,162.36,182.13,158.56,178.92Z" transform="translate(-102.347 -140.02)" fill="#263238"/>
      <path id="Path_484" data-name="Path 484" d="M168.54,391.73l-.37,8.77h-7.35l.37-8.77Z" transform="translate(-102.347 -140.02)" opacity="0.2"/>
      <path id="Path_485" data-name="Path 485" d="M121.79,378.92l7.23,1.36-4.19,8.13-7.23-1.36Z" transform="translate(-102.347 -140.02)" opacity="0.2"/>
      <path id="Path_486" data-name="Path 486" d="M140.64,155c.44,7.28.32,11.56,4,15.3,5.52,5.62,14.51,2.3,16.25-5,1.57-6.54.58-17.34-6.54-20.25A9.94,9.94,0,0,0,140.64,155Z" transform="translate(-102.347 -140.02)" fill="#7f3e3b"/>
      <path id="Path_487" data-name="Path 487" d="M154.26,159.06c2.75-2.78,7.27-8.84,5.69-13.39-2.33-6.73-9.28-4.45-8.17-3.11-4-2.64-12.08-2.77-10.39.77-7.27,1-7.86,3.95-5.84,5.06-5.18,4.94-4.93,10.05-1,9.67-3,3,2.52,8.94,8.69,11.77C145.34,164.33,156.58,163.33,154.26,159.06Z" transform="translate(-102.347 -140.02)" fill="#263238"/>
      <path id="Path_488" data-name="Path 488" d="M151.07,161.69a.216.216,0,0,1-.2-.35c1.58-2.32,3.12-4.18,4.48-5.82,2.6-3.14,4.48-5.41,4.64-8.49a6.06,6.06,0,0,0-3.92-5.85c-1.86-.84-3.86-.89-4.65-.11-.42.41-.46,1-.12,1.82a.23.23,0,0,1-.13.32.25.25,0,0,1-.33-.13,2,2,0,0,1,.23-2.37c.94-.92,3.13-.92,5.21,0a6.53,6.53,0,0,1,4.21,6.32c-.17,3.25-2.09,5.57-4.75,8.78-1.36,1.64-2.89,3.49-4.46,5.8a.25.25,0,0,1-.21.08Z" transform="translate(-102.347 -140.02)" fill="#263238"/>
      <path id="Path_489" data-name="Path 489" d="M151.43,158.24a8.24,8.24,0,0,0,2.06,4.87c1.6,1.76,3.28.66,3.56-1.48.25-1.94-.27-5.19-2.23-6.16S151.3,156.06,151.43,158.24Z" transform="translate(-102.347 -140.02)" fill="#7f3e3b"/>
      <path id="Path_490" data-name="Path 490" d="M153,245.11s2.48,49.52-2.35,70.5c-7.65,33.22-22.28,71.75-22.28,71.75l-13.62-2.57s11.47-38.58,14-66.24c2.23-24.84-1.07-53.37-1.07-73.44Z" transform="translate(-102.347 -140.02)" fill="#263238"/>
      <path id="Path_491" data-name="Path 491" d="M149.33,259.78c1-1.93,2.95,3.82,4.31,11.2,0,10.18-.18,21.76-1.07,31.57C145.77,290,147.22,263.78,149.33,259.78Z" transform="translate(-102.347 -140.02)" opacity="0.2"/>
      <path id="Path_492" data-name="Path 492" d="M131.71,383.18c.06,0-2.13,4.72-2.13,4.72l-15.76-3.07,1.72-4.75Z" transform="translate(-102.347 -140.02)" fill="#2c6bdb"/>
      <path id="Path_493" data-name="Path 493" d="M167,245.11s11,46.89,11.8,69.3c.87,25.13-7.9,84.39-7.9,84.39H158.46s-1.53-59.72-2.09-82.61c-.6-24.95-15.24-71.08-15.24-71.08Z" transform="translate(-102.347 -140.02)" fill="#263238"/>
      <path id="Path_494" data-name="Path 494" d="M173.3,393.84c.06,0-.7,5.17-.7,5.17H157.46l-.41-4.61Z" transform="translate(-102.347 -140.02)" fill="#2c6bdb"/>
    </g>
  </g>
</svg>
