<svg xmlns="http://www.w3.org/2000/svg" width="246.896" height="329.266" viewBox="0 0 246.896 329.266">
  <g id="freepik--characters--inject-174" transform="translate(-269.689 -173.63)">
    <path id="Path_241" data-name="Path 241" d="M326.054,240.453c-5.244-1.246-11.024,2.492-14.4,10.72s-10.141,29.263-11.589,34.768c-.637,2.463,18.079,24.279,17.384,23.961-.2-.1,6.1-10.648,6.1-10.648l-9.083-13.98,5.795-15.167Z" transform="translate(13.621 29.875)" fill="#b16668"/>
    <path id="Path_242" data-name="Path 242" d="M309.956,379.086c-.71.275-.9,1.622-1,4.346-.087,2.043-.522,5.592,1.869,6.3s5.882.348,7.417-1.565a94.155,94.155,0,0,1,5.925-7.432c2.361-2.55,4.911-4.911,5.867-8.475.869-3.216.145-4.607-2.043-5.548-3.028-1.275-7.765,2.9-10.141,3.578C315.838,370.843,310.666,378.825,309.956,379.086Z" transform="translate(17.579 86.521)" fill="#263238"/>
    <path id="Path_243" data-name="Path 243" d="M309.62,373.832v3.3a8.113,8.113,0,0,0,8.359.232c.145-.319.869-4.737.869-4.737Z" transform="translate(17.915 89.283)" fill="#b16668"/>
    <path id="Path_244" data-name="Path 244" d="M327.242,387.31a55.536,55.536,0,0,0-1.449,5.389c-.42,2-1,5.346-.29,6.838s3.419,2.477,7.663,2.448c2.738,0,7.011,1.84,9.938,3.477a15.326,15.326,0,0,0,9.489,1.318c3.766-.449,7.678-2.637,8.286-4.187s-.174-2.318-9.054-6.1c-.087,0-9.358-4.23-13.661-8.967Z" transform="translate(24.892 95.869)" fill="#263238"/>
    <path id="Path_245" data-name="Path 245" d="M326.6,384.84v3.853c0,1.405,1.651,3.491,5.939,3.346,3.013-.116,5.114-.927,4.983-3.4v-3.564Z" transform="translate(25.533 94.761)" fill="#b16668"/>
    <path id="Path_246" data-name="Path 246" d="M307.461,369.967A78.548,78.548,0,0,1,311.5,352.96s-1.869-14.631-2.9-28.683c-1.927-25.192-.377-33.421,4.578-44.72,0,0,42.257-4.346,43.547,13.284,1.608,21.875-.521,64.146-1.1,71.868s-1.3,11.213-4.027,27.351c-2.086,12.285-5.3,40.461-5.3,40.461a11.589,11.589,0,0,1-10.923-.232s-3.448-35.173-3.086-44.083a75.735,75.735,0,0,1,3.317-19.427s-2.622-35.651-3.375-41.33c0,0-1.333,11.314-1.912,19.035s-2.9,15.109-5.1,29.466c-1.941,12.444-5.548,40.273-5.548,40.273-5.606,3.042-8.953-.391-8.953-.391S305.955,380.76,307.461,369.967Z" transform="translate(16.815 47.312)" fill="#ffb547"/>
    <path id="Path_248" data-name="Path 248" d="M337.971,237.406l-1.985,16.326-14.356-1.289,1.637-18.123Z" transform="translate(23.304 27.229)" fill="#b16668"/>
    <path id="Path_249" data-name="Path 249" d="M312.208,248.539c1.579-4.346,6.954-9.083,12.473-8.055l4.056.739c.116,3.767,7.243,5.708,14.284,3.433,2.115.608,4.071,1.231,5.795,1.854,5.056,1.811,7.084,10.141,7.243,24.25s1.608,49.066,1.608,49.066l-5.983,1.9-2.752-10.242-1.115,12.27a44,44,0,0,1-20.412-.1c-15.182-3.317-19.9-11.5-19.9-11.5A74.1,74.1,0,0,1,318.365,285.6C310.774,265.357,309.876,254.956,312.208,248.539Z" transform="translate(16.964 29.931)" fill="#ebebeb"/>
    <path id="Path_250" data-name="Path 250" d="M352.666,228.17a12.618,12.618,0,0,0-1.086-12.14c-4.824-7.562-14.11-8.851-25.12-5.9a19.513,19.513,0,0,0-13.777,17.732c-.536,8.069,21.991,14.023,21.469,19.557Z" transform="translate(19.285 15.72)" fill="#263238"/>
    <path id="Path_251" data-name="Path 251" d="M340.61,224.25s3.057,4.9,2.622,5.4a7.634,7.634,0,0,1-2.463.985Z" transform="translate(31.819 22.711)" fill="#9a4a4d"/>
    <path id="Path_252" data-name="Path 252" d="M340.871,213.988c3.042,1.68,8.315,4.781,9.387,16.225,1.1,11.734-1.622,15.732-3.259,17.225-1.1,1.014-6.678,1.231-9.547.261-3.593-1.231-11.357-5.317-14.878-11.459-4.143-7.243-4.781-16.732.319-20.281A18.673,18.673,0,0,1,340.871,213.988Z" transform="translate(22.243 17.457)" fill="#b16668"/>
    <path id="Path_253" data-name="Path 253" d="M344.732,215.311s2.4,10.749-1.014,17.384c0,0-1.767-4.216-5.389-3.115s-3.433,5.925-.666,8.46a5.36,5.36,0,0,0,5.563,1.333,24.061,24.061,0,0,1-5.374,8.112s-10.706,4.766-19.963-5.693c-8.417-9.489-6.852-26.076,6.026-29.944S344.732,215.311,344.732,215.311Z" transform="translate(19.28 16.642)" fill="#263238"/>
    <path id="Path_254" data-name="Path 254" d="M314.829,214.851a2.521,2.521,0,0,1,.275,3.549l-3.824-3.288a2.506,2.506,0,0,1,3.549-.261Z" transform="translate(18.66 18.218)" fill="#263238"/>
    <path id="Path_255" data-name="Path 255" d="M361.13,267.587c2.086-2.376,2.9-7.678,5.65-11.3s3.8-6.273,4.9-4.694c1.449,2.1-1.825,6.287-1.1,6.707s3.448,5.939,3.723,9.011-7.852,10.778-7.852,10.778Z" transform="translate(41.026 34.77)" fill="#b16668"/>
    <path id="Path_256" data-name="Path 256" d="M367.49,255.866s9.822-.84,11.256,0,1,5.1,0,7.707-6.012,4.346-10.662,7.446C368.084,270.555,367.49,255.866,367.49,255.866Z" transform="translate(43.879 36.728)" fill="#b16668"/>
    <path id="Path_257" data-name="Path 257" d="M336.426,244.33c4.216,1.449,7.91,3.173,11.85,10.575,5.056,9.518,14.269,28.147,14.269,28.147l11.473-12.415s1.666-2.347,4.766,2.781,1.738,6.548,1.738,6.548-13.342,17.876-15.79,20.151-6.475.507-9.112-3.071-19.195-24.308-19.195-24.308S327.372,260.83,336.426,244.33Z" transform="translate(28.137 31.72)" fill="#b16668"/>
    <path id="Path_258" data-name="Path 258" d="M328.714,316.6l-.811-8.533a32.421,32.421,0,0,1-12.893-4.882s2.752,4.346,10.286,6.4l.782,10.865.464,17.818Z" transform="translate(20.334 58.128)" opacity="0.2"/>
    <path id="Path_259" data-name="Path 259" d="M303.7,254.54h0a14.878,14.878,0,0,0,14.921-14.863V217.092h0A11.357,11.357,0,0,0,303.758,227.9Z" transform="translate(15.259 19.25)" fill="#263238"/>
    <path id="Path_260" data-name="Path 260" d="M344.609,276.167s-8.243-10.633-10.879-14.907L344.9,284.844Z" transform="translate(28.732 39.316)" fill="#e0e0e0"/>
    <path id="Path_261" data-name="Path 261" d="M401.157,213.881c-3.129,9.228-9.807,36.752-9.807,36.752s-12.734,16.935-16.239,20.165c-1.941,1.8-6.331,5.027-6.331,5.027l3.651,2.694s6.084-1.854,6.591,1.449a185.331,185.331,0,0,0,17.963-16.515,11.589,11.589,0,0,0,2.9-5.3l5.432-23.367s0-18.833,2.9-21.3,1.753-8.04,1.753-8.04C407.981,205.508,403.62,206.652,401.157,213.881Z" transform="translate(44.458 14.276)" fill="#ffa8a7"/>
    <path id="Path_262" data-name="Path 262" d="M407.509,204.81a52.336,52.336,0,0,0,3.216,7.243c1.275,2.187-8.475,41.518-9.127,44.445s-19.557,19.977-19.557,19.977a14.2,14.2,0,0,1-7.562-7.591l13.646-17.761s4.245-18.63,6.475-27.177S399.209,205.737,407.509,204.81Z" transform="translate(47.015 13.989)" fill="#ffb547"/>
    <rect id="Rectangle_177" data-name="Rectangle 177" width="9.416" height="16.138" transform="translate(485.033 403.633)" fill="#ffa8a7"/>
    <path id="Path_264" data-name="Path 264" d="M401.3,340.385l-9.416.333-.464-17.08,9.88-.319Z" transform="translate(54.615 67.159)" fill="#ffa8a7"/>
    <path id="Path_265" data-name="Path 265" d="M438.867,253.516c0,9,.623,61.322.623,61.322.217,2.579,2.709,7.243,2.9,16.515.275,13.53-1.811,45.386-1.811,45.386a12.4,12.4,0,0,1-10.488.2s-7.4-45.053-9.083-58.453c-1.449-11.676-6.562-42.866-6.562-42.866l-7.243,39.49a53.6,53.6,0,0,1,1.173,14.979c-.449,6.186-6.186,37.2-6.186,37.2a12.864,12.864,0,0,1-10.879.84s-.565-48.689-.666-54.368c-.13-6.475,2.694-62.205,2.694-62.205Z" transform="translate(54.264 34.964)" fill="#37474f"/>
    <path id="Path_266" data-name="Path 266" d="M422.081,340.75V339.4c-.507,0-.811.493-1.014,1.695a24.45,24.45,0,0,1-.55,2.666,31.661,31.661,0,0,1-1.637,4.824c-1.333,3.288-2.448,4.505-5.5,8.344a35.63,35.63,0,0,0-2.9,3.375c-.565,1.014-.768,3.825.2,4.476,3.549,2.376,8.953,2.434,12.777,1.318a7.736,7.736,0,0,0,5.548-6.229c.145-.869.087-1.767.188-2.637a12.573,12.573,0,0,1,2.361-5.476,16.89,16.89,0,0,0,1.811-2.984c.782-1.927.159-4.114-.348-6.041-.435-1.666-.913-3.491-1.449-3.332v1.014a7.388,7.388,0,0,1-4.723,1.594C425.413,342.069,422.066,341.793,422.081,340.75Z" transform="translate(62.952 74.371)" fill="#263238"/>
    <path id="Path_267" data-name="Path 267" d="M398.609,333.51c-.493,0-.884.71-1.97,1.883a20.816,20.816,0,0,1-5.534,3.984c-3.535,1.767-10.387,4.476-13.5,5.882-1.941.869-1.84,3.216.159,4.549s6.852,2.289,12.661,1c3.158-.71,7.243-3.636,9.894-3.477s7.49.116,9.416-1.217,1.159-4.158.608-6.591c-.594-2.651-1.333-6.809-2.216-6.62v.913c-1.13,1.724-6.983,2.419-9.46,1.159Z" transform="translate(47.789 71.456)" fill="#263238"/>
    <path id="Path_268" data-name="Path 268" d="M411.154,270.49A34.986,34.986,0,0,1,398,263s2.535,4.752,10.141,9.156l-3.651,35.13Z" transform="translate(57.568 40.096)" fill="#263238"/>
    <path id="Path_269" data-name="Path 269" d="M421.928,205.38c3.216.782,9.677,1.84,11.126,8.228,1.738,7.663,2.3,24.366,2.3,24.366l.594,37.173c-6.49,4.723-30.32,7.243-43.981-2.68,0,0,1.68-44.619,1.68-51.572s3.853-15.3,14.487-15.935Z" transform="translate(-122.281 165.748)" fill="#f5f5f5"/>
    <path id="Path_270" data-name="Path 270" d="M408.611,204.767a18.977,18.977,0,0,0-6.084,9.416c-1.3,5.621-1.449,68.391-1.449,68.391s-6.664-1.231-9.778-3.68c0,0,.391-49.544,1.029-57.743.971-12.415.869-15.935,16.326-17.311Z" transform="translate(54.562 13.554)" fill="#ffb547"/>
    <path id="Path_271" data-name="Path 271" d="M417.592,203.84s-8.88,5.461-8.982,27.206c-.087,18.833-.71,51.529-.71,51.529s14.7,2.159,24.019-3.4c0,0,1.115-45.575.927-52.63-.2-8.083-2.086-18.528-4.679-19.571A73.992,73.992,0,0,0,417.592,203.84Z" transform="translate(62.009 13.554)" fill="#ffb547"/>
    <path id="Path_272" data-name="Path 272" d="M446.036,253.178C437.2,217.048,430.666,205,419.961,205.14c-3.144,3.738-2.274,15.066,2.68,21.933,0,0,11.053,23.294,12.806,31.581,1.55,7.243,3.3,16.442,3.2,22.7a4.564,4.564,0,0,1-1.231,2.97c-2.014,2.187-2.028,3.955-3.332,6.374-1.029,1.883-2.144,2.593-1.825,3.028a2.463,2.463,0,0,0,3.317.246,12.661,12.661,0,0,0,2.506-2.419,25.222,25.222,0,0,1-1.985,6.707c-2.274,5.114-1.724,7.721,5.186,5.9,4.346-1.144,7.04-4.737,7.678-15.138a78.878,78.878,0,0,0,.116-11.5C448.137,267.664,447.471,259,446.036,253.178Z" transform="translate(66.594 14.137)" fill="#ffa8a7"/>
    <path id="Path_273" data-name="Path 273" d="M418.455,204.732s7.113-.319,10.966,3.578,9.054,12.1,14.1,30.016,6.591,31.016,6.838,41.1c0,0-6.316,2.9-12.14-.406,0,0-2.579-15.6-4.867-23.9s-10.821-25.786-10.821-25.786S414.37,217.2,418.455,204.732Z" transform="translate(66.231 13.951)" fill="#ffb547"/>
    <path id="Path_275" data-name="Path 275" d="M417.564,212.05l-4.071,5.027,2.043,5.737-5.346,13.7,6.432-13.7-2.245-5.418Z" transform="translate(63.037 17.237)" opacity="0.1"/>
    <path id="Path_276" data-name="Path 276" d="M396.3,210.93l.884,5.2-3.52,4.592,4.9,15.414-3.8-15.24,3.245-4.288Z" transform="translate(55.62 16.735)" opacity="0.1"/>
    <circle id="Ellipse_10" data-name="Ellipse 10" cx="12.951" cy="12.951" r="12.951" transform="translate(446.703 199.197) rotate(-80.78)" fill="#263238"/>
    <path id="Path_277" data-name="Path 277" d="M419.276,190.23s-2.1,9.865-2.9,11.488a4.476,4.476,0,0,1-2.579,2.072l.145-6.939Z" transform="translate(64.656 7.448)" fill="#263238"/>
    <path id="Path_278" data-name="Path 278" d="M416.186,180.489a4.853,4.853,0,0,1,4.027,1.449c1.724,1.767.768,7.243-1.449,12.7l-3.955.449Z" transform="translate(65.109 3.064)" fill="#263238"/>
    <path id="Path_279" data-name="Path 279" d="M422.709,196.96c.8.464,1.927-1.058,2.9-2.072a3.433,3.433,0,0,1,5.795.927c1.623,3.419-1.449,7.939-3.911,8.692-4.346,1.362-4.983-1.449-4.983-1.449l-.319,16.095h0c-3,3.839-9.72,8.359-13.342,7.707-2.9-.507-3.52-5.389-.753-8.591v-4.723a26.961,26.961,0,0,1-5.795.29c-3.187-.493-5.186-3-6.157-6.447-1.55-5.534-2.144-10-.826-20.89,1.449-11.937,15.327-12.053,22.816-7.345S422.709,196.96,422.709,196.96Z" transform="translate(56.037 1.181)" fill="#ffa8a7"/>
    <path id="Path_280" data-name="Path 280" d="M423.232,199.461c.406,0,1.927-2.506,2.9-3.4,1.362-1.246-.406-12.516-.406-12.516a5.462,5.462,0,0,0-.942-6.084c-1.869-2.057-4.476-4.578-13.038-3.564-6.055.71-12.647,2.593-17.978,0a9.069,9.069,0,0,0,3.158,9.634,18.065,18.065,0,0,0,7,1.854,74.854,74.854,0,0,0,14.052-.261c1.449-.2,1.782,1.217,2.579,5.114C421.364,193.637,421.943,199.432,423.232,199.461Z" transform="translate(55.514 0.013)" fill="#263238"/>
    <path id="Path_281" data-name="Path 281" d="M415.851,182.357l4.8-2.579a2.651,2.651,0,0,0-3.636-1.2A2.9,2.9,0,0,0,415.851,182.357Z" transform="translate(65.445 2.08)" fill="#263238"/>
    <path id="Path_282" data-name="Path 282" d="M403.93,203.907a54.891,54.891,0,0,0,9.59-2.752,8.17,8.17,0,0,0,3.433-3.4A11.111,11.111,0,0,1,415,201.763c-1.811,2.318-11.068,4.027-11.068,4.027Z" transform="translate(60.228 10.822)" fill="#f28f8f"/>
    <path id="Path_283" data-name="Path 283" d="M405.11,189.769a1.449,1.449,0,1,0,1.449-1.449A1.449,1.449,0,0,0,405.11,189.769Z" transform="translate(60.757 6.591)" fill="#263238"/>
    <path id="Path_284" data-name="Path 284" d="M406.15,185.907l3.042,1.68a1.84,1.84,0,0,0-.71-2.434,1.695,1.695,0,0,0-2.332.753Z" transform="translate(61.224 5.078)" fill="#263238"/>
    <path id="Path_285" data-name="Path 285" d="M405.375,196.11l-3.245,1.217a1.7,1.7,0,0,0,2.2,1.086,1.825,1.825,0,0,0,1.043-2.3Z" transform="translate(59.42 10.086)" fill="#f28f8f"/>
    <path id="Path_286" data-name="Path 286" d="M396.445,187.319l2.781-2.144a1.695,1.695,0,0,0-2.419-.377,1.854,1.854,0,0,0-.362,2.521Z" transform="translate(56.718 4.854)" fill="#263238"/>
    <path id="Path_287" data-name="Path 287" d="M396.93,189.449A1.449,1.449,0,1,0,398.379,188,1.449,1.449,0,0,0,396.93,189.449Z" transform="translate(57.087 6.447)" fill="#263238"/>
    <path id="Path_288" data-name="Path 288" d="M403.47,188.11l-.464,8.562-4.476-1.521Z" transform="translate(57.805 6.497)" fill="#f28f8f"/>
    <path id="Path_289" data-name="Path 289" d="M400.87,211.681c.869,2.086,2.492,2.9,5.4,3.259a10.879,10.879,0,0,0,8.084-2.9l-3.622-3.607-4.621,3.462-.391-3.868Z" transform="translate(58.855 15.434)" fill="#ffb547"/>
    <path id="Path_291" data-name="Path 291" d="M402.609,209.77a9.561,9.561,0,0,0-.478,3.9,6.621,6.621,0,0,0,1.3,3.23,3.535,3.535,0,0,0,3.129.348,8.6,8.6,0,0,0,3-6.5l-4,.449Z" transform="translate(59.405 16.214)" fill="#ffb547"/>
    <path id="Path_292" data-name="Path 292" d="M404.528,214.69s-4.737,26.076-4.925,28.22,2.709,9.59,4.52,9.648,5.346-6.707,5.389-8.692-1.854-28.9-1.854-28.9Z" transform="translate(58.283 18.422)" fill="#2b2b2b"/>
    <path id="Path_293" data-name="Path 293" d="M406.149,215.038a3.129,3.129,0,0,1-3.129-.348v.42a3.593,3.593,0,0,0,3.259.637Z" transform="translate(59.82 18.422)" opacity="0.1"/>
    <path id="Path_294" data-name="Path 294" d="M404.49,214.824l13.328-10.141V201.67s3.1,1.173,3.8,6.635a23.382,23.382,0,0,1-10.387,11.053l-2.8-4.983Z" transform="translate(60.479 12.58)" fill="#e0e0e0"/>
    <path id="Path_295" data-name="Path 295" d="M405.6,202.62a6.678,6.678,0,0,0-4.346,2.651c-1.333,2.187-1.029,10.6-1.029,10.6l3.187-2.9,2.9,1.449c-.275-2.8-.826-7.9-.826-7.9Z" transform="translate(58.554 13.007)" fill="#e0e0e0"/>
    <path id="Path_296" data-name="Path 296" d="M368,269.451a11.444,11.444,0,0,0,2.1-5.954c.377-2.738,7.881-5.679,8.127-3.636s.927,3.737-1.449,6.215S371.491,271.291,368,269.451Z" transform="translate(44.108 38.382)" fill="#ffa8a7"/>
    <path id="Path_297" data-name="Path 297" d="M369.828,254.895c-1.8,2.318-2.9,6.823-3.853,8.344s-2.086,2.9,0,3.115,5.114-3.781,6.244-6.244a6.663,6.663,0,0,1,1.941-2.492,4.346,4.346,0,0,1,1.087-.637c-.971-.333-.464-4.245-1.144-4.781C374.1,252.2,370.567,253.649,369.828,254.895Z" transform="translate(42.671 35.251)" fill="#ffa8a7"/>
  </g>
</svg>
